<svg xmlns="http://www.w3.org/2000/svg" viewBox="0 0 210 135"><defs><style>.cls-1{fill:#00929e;}.cls-2{fill:#bfd730;}.cls-3{fill:#72bf44;}.cls-4{fill:#9aca3c;}</style></defs><title>client3</title><g id="Layer_2" data-name="Layer 2"><path class="cls-1" d="M156.85,37.16a19.85,19.85,0,0,0,8.95,16.6,19.86,19.86,0,0,0,0-33.19A19.84,19.84,0,0,0,156.85,37.16Z"/><path class="cls-1" d="M178.68,37.16a19.84,19.84,0,0,0,8.95,16.59,19.86,19.86,0,0,0,0-33.19A19.84,19.84,0,0,0,178.68,37.16Z"/><path class="cls-2" d="M167.77,37.16a19.84,19.84,0,0,0,9,16.6,19.86,19.86,0,0,0,0-33.2A19.84,19.84,0,0,0,167.77,37.16Z"/><path class="cls-3" d="M167.77,37.16a19.76,19.76,0,0,0,3.49,11.24,19.86,19.86,0,0,0,0-22.49A19.76,19.76,0,0,0,167.77,37.16Z"/><path class="cls-3" d="M178.68,37.16a19.75,19.75,0,0,0,3.5,11.25,19.86,19.86,0,0,0,0-22.51A19.75,19.75,0,0,0,178.68,37.16Z"/><path class="cls-4" d="M72.35,75.56a11.12,11.12,0,0,1,3.74,2.88,12.49,12.49,0,0,1,2.3,4.23A17.42,17.42,0,0,1,78.4,93a12.51,12.51,0,0,1-2.3,4.23,10.9,10.9,0,0,1-3.74,2.86,13,13,0,0,1-10.23,0,10.89,10.89,0,0,1-3.74-2.86A12.52,12.52,0,0,1,56.09,93a17.38,17.38,0,0,1,0-10.32,12.49,12.49,0,0,1,2.3-4.23,11.12,11.12,0,0,1,3.74-2.88,12.65,12.65,0,0,1,10.23,0Zm-9,2.44a8.53,8.53,0,0,0-2.76,2.45,11.09,11.09,0,0,0-1.66,3.45,14,14,0,0,0,0,7.87,11.1,11.1,0,0,0,1.66,3.45,8.5,8.5,0,0,0,2.76,2.45,8.51,8.51,0,0,0,7.73,0,8.5,8.5,0,0,0,2.76-2.45,11.14,11.14,0,0,0,1.66-3.45,14.09,14.09,0,0,0,0-7.87,11.13,11.13,0,0,0-1.66-3.45A8.52,8.52,0,0,0,71.11,78a8.51,8.51,0,0,0-7.73,0Z"/><path class="cls-4" d="M84.85,75.22v4.35h.1a7.4,7.4,0,0,1,3.13-3.69A9.22,9.22,0,0,1,93,74.48a12.42,12.42,0,0,1,4.43.69,7,7,0,0,1,2.86,1.93,7.22,7.22,0,0,1,1.52,3.06,17.18,17.18,0,0,1,.44,4.06v16.24H99.19V84.71a14.44,14.44,0,0,0-.29-3,6.36,6.36,0,0,0-1-2.42,5,5,0,0,0-2-1.62,7.32,7.32,0,0,0-3.11-.59,7.84,7.84,0,0,0-3.3.66A7.11,7.11,0,0,0,87,79.55a8.37,8.37,0,0,0-1.56,2.74,11.17,11.17,0,0,0-.61,3.45v14.72H81.77V75.22Z"/><path class="cls-4" d="M132.89,79.13A7.2,7.2,0,0,1,135,76.49,9.05,9.05,0,0,1,138.18,75a15.38,15.38,0,0,1,4-.49,17.68,17.68,0,0,1,3.33.32,8,8,0,0,1,3,1.2,6.52,6.52,0,0,1,2.15,2.47,8.89,8.89,0,0,1,.83,4.13V96a1.62,1.62,0,0,0,1.81,1.85,2.37,2.37,0,0,0,1-.19v2.59c-.36.07-.68.11-1,.15a9.31,9.31,0,0,1-1.05,0,4.67,4.67,0,0,1-1.88-.32,2.53,2.53,0,0,1-1.1-.9,3.4,3.4,0,0,1-.51-1.39,12,12,0,0,1-.12-1.79h-.1a20.78,20.78,0,0,1-1.69,2.17,8.31,8.31,0,0,1-1.9,1.59,8.86,8.86,0,0,1-2.4,1,13.2,13.2,0,0,1-3.2.34,12.6,12.6,0,0,1-3.3-.42,7.37,7.37,0,0,1-2.69-1.32,6.33,6.33,0,0,1-1.81-2.3,7.68,7.68,0,0,1-.66-3.3,6.55,6.55,0,0,1,1.17-4.13,7.43,7.43,0,0,1,3.11-2.28,17.73,17.73,0,0,1,4.35-1.1q2.42-.32,4.92-.61c.65-.06,1.22-.15,1.71-.24a3,3,0,0,0,1.22-.51,2.4,2.4,0,0,0,.76-1,4.37,4.37,0,0,0,.27-1.66,5.61,5.61,0,0,0-.51-2.57,4,4,0,0,0-1.42-1.59,5.74,5.74,0,0,0-2.1-.81,14.19,14.19,0,0,0-2.57-.22,7.77,7.77,0,0,0-4.8,1.4,5.46,5.46,0,0,0-2,4.48H132A10.2,10.2,0,0,1,132.89,79.13Zm15.41,7.54a1.77,1.77,0,0,1-1.13.78,11.3,11.3,0,0,1-1.47.34q-2,.34-4,.61a22.18,22.18,0,0,0-3.79.8,7.4,7.4,0,0,0-2.81,1.54,3.67,3.67,0,0,0-1.1,2.86,4.45,4.45,0,0,0,.46,2.08,5,5,0,0,0,1.25,1.57,5.4,5.4,0,0,0,1.81,1,6.49,6.49,0,0,0,2.1.34,10.51,10.51,0,0,0,3.37-.54,8.29,8.29,0,0,0,2.81-1.56,7.44,7.44,0,0,0,2.62-5.82v-4Z"/><path class="cls-4" d="M156.72,75.22,165,96.74l7.78-21.53h3.08l-11,29.06a29,29,0,0,1-1.27,2.66,6.14,6.14,0,0,1-1.3,1.66,4.29,4.29,0,0,1-1.66.88,9,9,0,0,1-2.42.27l-1.44-.07a2.9,2.9,0,0,1-.9-.17v-2.59l1.05.17a7.47,7.47,0,0,0,1,.07,4.17,4.17,0,0,0,1.69-.29,3.55,3.55,0,0,0,1.15-.81,4.55,4.55,0,0,0,.83-1.25q.34-.73.73-1.61l1.08-2.84L153.44,75.22Z"/><path class="cls-4" d="M70.14,42.86v5.92h.1A9.69,9.69,0,0,1,73.89,44a9.56,9.56,0,0,1,5.9-1.51V45.6a9.36,9.36,0,0,0-3.82.56A8.45,8.45,0,0,0,71.07,51a9.72,9.72,0,0,0-.68,3.69V68.11H67.31V42.86Z"/><path class="cls-4" d="M84.11,59.76A9.51,9.51,0,0,0,85.6,63a8.53,8.53,0,0,0,2.59,2.35,7.22,7.22,0,0,0,3.77.93,7.49,7.49,0,0,0,5.28-1.76,9.24,9.24,0,0,0,2.64-4.7H103a12.3,12.3,0,0,1-3.6,6.65Q96.75,68.79,92,68.79a11.77,11.77,0,0,1-5.16-1.05,9.51,9.51,0,0,1-3.55-2.88,12.59,12.59,0,0,1-2-4.26,19.4,19.4,0,0,1-.66-5.11,18.36,18.36,0,0,1,.66-4.89,13.15,13.15,0,0,1,2-4.28,10.19,10.19,0,0,1,3.55-3A10.89,10.89,0,0,1,92,42.13a10,10,0,0,1,8.68,4.43,13.22,13.22,0,0,1,1.93,4.55,20,20,0,0,1,.49,5.21H83.65A13.7,13.7,0,0,0,84.11,59.76Zm15.26-9.42a9.26,9.26,0,0,0-1.59-2.86,7.9,7.9,0,0,0-2.5-2A7.16,7.16,0,0,0,92,44.72a7.26,7.26,0,0,0-3.38.76,7.88,7.88,0,0,0-2.5,2,10,10,0,0,0-1.64,2.89,14.16,14.16,0,0,0-.81,3.35H100A11.21,11.21,0,0,0,99.37,50.35Z"/><path class="cls-4" d="M128,51.11A13.33,13.33,0,0,0,126,46.56a10,10,0,0,0-8.68-4.43,10.9,10.9,0,0,0-5.16,1.15,10.17,10.17,0,0,0-3.54,3,13.15,13.15,0,0,0-2,4.28,18.39,18.39,0,0,0-.66,4.89,19.43,19.43,0,0,0,.66,5.11,12.59,12.59,0,0,0,2,4.26,9.49,9.49,0,0,0,3.54,2.88,11.77,11.77,0,0,0,5.16,1.05q4.79,0,7.41-2.35c.17-.15.34-.32.5-.48V80h-.1a7.3,7.3,0,0,0-1.39-2.39,8.92,8.92,0,0,0-2.08-1.74,9.15,9.15,0,0,0-2.52-1,11.15,11.15,0,0,0-2.77-.35,11,11,0,0,0-5,1.08,10.18,10.18,0,0,0-3.55,2.91,12.33,12.33,0,0,0-2.11,4.25,19.43,19.43,0,0,0,0,10.23,12.36,12.36,0,0,0,2.11,4.26,10,10,0,0,0,3.55,2.89,11.17,11.17,0,0,0,5,1.05,10.19,10.19,0,0,0,2.77-.39,11.35,11.35,0,0,0,2.62-1.1A9.32,9.32,0,0,0,124,97.92a7.18,7.18,0,0,0,1.44-2.25h.1v4.79h2.84V59.79h-3.1v.06a9.2,9.2,0,0,1-2.62,4.64,7.49,7.49,0,0,1-5.28,1.76,7.22,7.22,0,0,1-3.77-.93A8.51,8.51,0,0,1,111,63a9.43,9.43,0,0,1-1.49-3.21,13.7,13.7,0,0,1-.47-3.45h19.42A20.17,20.17,0,0,0,128,51.11ZM124.8,91.73a10.12,10.12,0,0,1-1.51,3.45,7.91,7.91,0,0,1-6.87,3.42,7.1,7.1,0,0,1-3.77-1,8.09,8.09,0,0,1-2.57-2.47,10.78,10.78,0,0,1-1.47-3.45,16.55,16.55,0,0,1,0-7.78,10.73,10.73,0,0,1,1.47-3.45A8.06,8.06,0,0,1,112.64,78a7.12,7.12,0,0,1,3.77-1,8.3,8.3,0,0,1,4.13,1,8.18,8.18,0,0,1,2.74,2.47,10.08,10.08,0,0,1,1.51,3.45,16.5,16.5,0,0,1,0,7.78ZM109,53.72a14.12,14.12,0,0,1,.81-3.35,10,10,0,0,1,1.64-2.89,7.91,7.91,0,0,1,2.5-2,7.28,7.28,0,0,1,3.38-.76,7.15,7.15,0,0,1,3.33.76,7.85,7.85,0,0,1,2.49,2,9.25,9.25,0,0,1,1.59,2.86,11.19,11.19,0,0,1,.61,3.38Z"/><path class="cls-4" d="M135.65,42.86v4.35h.1a7.39,7.39,0,0,1,3.13-3.69,9.22,9.22,0,0,1,4.94-1.39,12.44,12.44,0,0,1,4.43.68,7,7,0,0,1,2.86,1.93,7.21,7.21,0,0,1,1.52,3.06,17.25,17.25,0,0,1,.44,4.06V68.11H150V52.35a14.55,14.55,0,0,0-.29-3,6.36,6.36,0,0,0-1-2.42,5,5,0,0,0-2-1.62,7.31,7.31,0,0,0-3.11-.59,7.85,7.85,0,0,0-3.3.66,7.14,7.14,0,0,0-2.45,1.81,8.42,8.42,0,0,0-1.57,2.74,11.15,11.15,0,0,0-.61,3.45V68.11h-3.08V42.86Z"/><path class="cls-4" d="M58.35,42.86v4.35h-.1a7.55,7.55,0,0,0-1.25-2,9.79,9.79,0,0,0-1.84-1.64,8.36,8.36,0,0,0-2.27-1.1,8.85,8.85,0,0,0-2.67-.39,11.31,11.31,0,0,0-4.87,1,10.3,10.3,0,0,0-3.57,2.74,12.26,12.26,0,0,0-2.2,4.06,15.69,15.69,0,0,0-.76,4.92,19.53,19.53,0,0,0,.63,5.06,11.28,11.28,0,0,0,2,4.14A9.63,9.63,0,0,0,45,66.81a12.2,12.2,0,0,0,5.19,1,8.43,8.43,0,0,0,4.87-1.42,9,9,0,0,0,3.16-3.77h.1v3.42q0,4.6-1.91,7t-6.21,2.45a11.63,11.63,0,0,1-2.49-.27c-.17,0-.33-.08-.49-.13a10.63,10.63,0,0,0-3.93-.66,9.51,9.51,0,0,0-4.7,1.22,7.76,7.76,0,0,0-3.33,3.72,6,6,0,0,0-2.71-3.72,8.59,8.59,0,0,0-4.53-1.22A9,9,0,0,0,23,75.8a9.69,9.69,0,0,0-3.2,3.67h-.15V75.22H16.8v25.24h3.08V86.37a14.67,14.67,0,0,1,.44-3.69,8.68,8.68,0,0,1,1.35-2.93,6.21,6.21,0,0,1,2.35-2,7.61,7.61,0,0,1,3.4-.71,5.77,5.77,0,0,1,2.49.49,4.17,4.17,0,0,1,1.64,1.35,5.66,5.66,0,0,1,.88,2,10.56,10.56,0,0,1,.27,2.42v17.12h3.08V86.17a17.8,17.8,0,0,1,.32-3.4,8.6,8.6,0,0,1,1.1-2.91,5.85,5.85,0,0,1,2.1-2,6.61,6.61,0,0,1,3.33-.76q3.33,0,4.65,1.64a7.46,7.46,0,0,1,1.32,4.77v17h3.08V83.34a11.13,11.13,0,0,0-1.08-5.21,14,14,0,0,0,4.83-.83,8.42,8.42,0,0,0,3.45-2.4,9.87,9.87,0,0,0,1.93-3.82,19.27,19.27,0,0,0,.61-5V42.86Zm-.51,16a9.85,9.85,0,0,1-1.54,3.21,8.06,8.06,0,0,1-2.54,2.25,7.08,7.08,0,0,1-3.52.86,7.67,7.67,0,0,1-3.72-.86,7.88,7.88,0,0,1-2.59-2.25,9.52,9.52,0,0,1-1.51-3.21,14.14,14.14,0,0,1-.49-3.72,15.8,15.8,0,0,1,.47-3.84A9.89,9.89,0,0,1,43.87,48a8,8,0,0,1,2.59-2.37,7.42,7.42,0,0,1,3.77-.9,7.14,7.14,0,0,1,3.74.93,7.76,7.76,0,0,1,2.52,2.45,10.74,10.74,0,0,1,1.42,3.38,16.05,16.05,0,0,1,.44,3.72A13.57,13.57,0,0,1,57.84,58.91Z"/></g></svg>