<svg xmlns="http://www.w3.org/2000/svg" xmlns:xlink="http://www.w3.org/1999/xlink" viewBox="0 0 135 135"><defs><style>.cls-1{fill:url(#linear-gradient);}.cls-2{fill:none;}.cls-3{fill:#447a3b;}.cls-4{fill:#fff;}.cls-5{fill:url(#linear-gradient-2);}.cls-6{fill:url(#linear-gradient-3);}.cls-7{fill:url(#linear-gradient-4);}.cls-8{fill:url(#linear-gradient-5);}.cls-9{fill:url(#linear-gradient-6);}.cls-10{fill:url(#linear-gradient-7);}.cls-11{fill:url(#linear-gradient-8);}.cls-12{fill:url(#linear-gradient-9);}.cls-13{fill:url(#linear-gradient-10);}.cls-14{fill:url(#linear-gradient-11);}.cls-15{fill:url(#linear-gradient-12);}.cls-16{fill:url(#linear-gradient-13);}.cls-17{fill:url(#linear-gradient-14);}.cls-18{fill:url(#linear-gradient-15);}.cls-19{fill:url(#linear-gradient-16);}.cls-20{fill:url(#linear-gradient-17);}.cls-21{fill:url(#linear-gradient-18);}.cls-22{fill:url(#linear-gradient-19);}.cls-23{fill:url(#linear-gradient-20);}.cls-24{fill:url(#linear-gradient-21);}.cls-25{fill:url(#linear-gradient-22);}.cls-26{fill:url(#linear-gradient-23);}.cls-27{fill:url(#linear-gradient-24);}.cls-28{fill:url(#linear-gradient-25);}.cls-29{fill:url(#linear-gradient-26);}.cls-30{fill:#a4bf3a;}.cls-31{fill:#53b248;}</style><linearGradient id="linear-gradient" x1="-825.4" y1="-122.59" x2="-874.49" y2="-160.04" gradientTransform="translate(933.28 -45.82) rotate(-15.66)" gradientUnits="userSpaceOnUse"><stop offset="0" stop-color="#296f38"/><stop offset="0.08" stop-color="#27843f"/><stop offset="0.17" stop-color="#259545"/><stop offset="0.28" stop-color="#24a048"/><stop offset="0.4" stop-color="#24a349"/><stop offset="0.48" stop-color="#3bab47"/><stop offset="0.61" stop-color="#56b445"/><stop offset="0.74" stop-color="#69bb44"/><stop offset="0.86" stop-color="#74bf43"/><stop offset="1" stop-color="#78c043"/></linearGradient><linearGradient id="linear-gradient-2" x1="-841.04" y1="-102.09" x2="-890.14" y2="-139.54" xlink:href="#linear-gradient"/><linearGradient id="linear-gradient-3" x1="-828.88" y1="-118.02" x2="-877.98" y2="-155.47" xlink:href="#linear-gradient"/><linearGradient id="linear-gradient-4" x1="-845.45" y1="-96.31" x2="-894.54" y2="-133.76" xlink:href="#linear-gradient"/><linearGradient id="linear-gradient-5" x1="-826.52" y1="-121.12" x2="-875.62" y2="-158.57" xlink:href="#linear-gradient"/><linearGradient id="linear-gradient-6" x1="-827.45" y1="-119.9" x2="-876.53" y2="-157.35" xlink:href="#linear-gradient"/><linearGradient id="linear-gradient-7" x1="-829.23" y1="-117.56" x2="-878.33" y2="-155.02" xlink:href="#linear-gradient"/><linearGradient id="linear-gradient-8" x1="405.57" y1="347.16" x2="423.74" y2="433.44" gradientTransform="translate(-382.47 -309.88)" xlink:href="#linear-gradient"/><linearGradient id="linear-gradient-9" x1="430.6" y1="341.89" x2="448.77" y2="428.2" gradientTransform="translate(-382.47 -309.88)" xlink:href="#linear-gradient"/><linearGradient id="linear-gradient-10" x1="457.63" y1="336.2" x2="475.8" y2="422.5" gradientTransform="translate(-382.47 -309.88)" xlink:href="#linear-gradient"/><linearGradient id="linear-gradient-11" x1="481.24" y1="331.23" x2="499.41" y2="417.55" gradientTransform="translate(-382.47 -309.88)" xlink:href="#linear-gradient"/><linearGradient id="linear-gradient-12" x1="121.02" y1="8.25" x2="122.95" y2="130.19" gradientTransform="matrix(1, 0, 0, 1, 0, 0)" xlink:href="#linear-gradient"/><linearGradient id="linear-gradient-13" x1="121.78" y1="8.24" x2="123.71" y2="130.17" gradientTransform="matrix(1, 0, 0, 1, 0, 0)" xlink:href="#linear-gradient"/><linearGradient id="linear-gradient-14" x1="120.12" y1="8.27" x2="122.05" y2="130.2" gradientTransform="matrix(1, 0, 0, 1, 0, 0)" xlink:href="#linear-gradient"/><linearGradient id="linear-gradient-15" x1="113.38" y1="8.38" x2="115.3" y2="130.3" gradientTransform="matrix(1, 0, 0, 1, 0, 0)" xlink:href="#linear-gradient"/><linearGradient id="linear-gradient-16" x1="103.15" y1="8.53" x2="105.07" y2="130.47" gradientTransform="matrix(1, 0, 0, 1, 0, 0)" xlink:href="#linear-gradient"/><linearGradient id="linear-gradient-17" x1="93.89" y1="8.68" x2="95.82" y2="130.61" gradientTransform="matrix(1, 0, 0, 1, 0, 0)" xlink:href="#linear-gradient"/><linearGradient id="linear-gradient-18" x1="78.65" y1="8.93" x2="80.58" y2="130.85" gradientTransform="matrix(1, 0, 0, 1, 0, 0)" xlink:href="#linear-gradient"/><linearGradient id="linear-gradient-19" x1="65.99" y1="9.12" x2="67.92" y2="131.05" gradientTransform="matrix(1, 0, 0, 1, 0, 0)" xlink:href="#linear-gradient"/><linearGradient id="linear-gradient-20" x1="46.99" y1="9.42" x2="48.91" y2="131.35" gradientTransform="matrix(1, 0, 0, 1, 0, 0)" xlink:href="#linear-gradient"/><linearGradient id="linear-gradient-21" x1="38.29" y1="9.56" x2="40.21" y2="131.49" gradientTransform="matrix(1, 0, 0, 1, 0, 0)" xlink:href="#linear-gradient"/><linearGradient id="linear-gradient-22" x1="29.69" y1="9.7" x2="31.62" y2="131.63" gradientTransform="matrix(1, 0, 0, 1, 0, 0)" xlink:href="#linear-gradient"/><linearGradient id="linear-gradient-23" x1="18.57" y1="9.87" x2="20.5" y2="131.8" gradientTransform="matrix(1, 0, 0, 1, 0, 0)" xlink:href="#linear-gradient"/><linearGradient id="linear-gradient-24" x1="13.54" y1="9.95" x2="15.46" y2="131.88" gradientTransform="matrix(1, 0, 0, 1, 0, 0)" xlink:href="#linear-gradient"/><linearGradient id="linear-gradient-25" x1="10.75" y1="10" x2="12.68" y2="131.92" gradientTransform="matrix(1, 0, 0, 1, 0, 0)" xlink:href="#linear-gradient"/><linearGradient id="linear-gradient-26" x1="11.7" y1="9.98" x2="13.63" y2="131.91" gradientTransform="matrix(1, 0, 0, 1, 0, 0)" xlink:href="#linear-gradient"/></defs><title>client2</title><g id="Layer_2" data-name="Layer 2"><path class="cls-1" d="M60,38.15c-.07-.23-.15-.45-.22-.67a8.52,8.52,0,0,0-2.82-4,7.31,7.31,0,0,0-1.86-1A8.32,8.32,0,0,0,54,32.16c-.19,0-.39-.07-.59-.1l-.3,0a1.8,1.8,0,0,0-.37,0,4.59,4.59,0,0,0-2.25.65,6.68,6.68,0,0,0-1.21,1.1,4.71,4.71,0,0,0-.74.92A6.52,6.52,0,0,0,48,39a10,10,0,0,0,.69,2.34,4.69,4.69,0,0,0,.48.93,3.62,3.62,0,0,0,.53.57,6.15,6.15,0,0,0,3.12,1.39l.41.06a8.43,8.43,0,0,0,1.24.06,7.39,7.39,0,0,0,2-.32A5.17,5.17,0,0,0,58,43.3a8.93,8.93,0,0,0,1.13-1.08,4.24,4.24,0,0,0,.57-.72,3.89,3.89,0,0,0,.53-1.67,5.22,5.22,0,0,0,0-1A4.05,4.05,0,0,0,60,38.15Z"/><path class="cls-2" d="M59.07,42.23h0S59.06,42.25,59.07,42.23Z"/><path class="cls-2" d="M49.23,33.85h0S49.21,33.87,49.23,33.85Z"/><path class="cls-2" d="M58.54,42.78v0l0,0Z"/><path class="cls-2" d="M85.75,59.34h0S85.75,59.32,85.75,59.34Z"/><path class="cls-2" d="M85.24,59.86h0S85.23,59.87,85.24,59.86Z"/><path class="cls-3" d="M49.76,33.31h0Z"/><path class="cls-3" d="M59.07,42.24h0l0,0-.05,0-.1.12Z"/><path class="cls-3" d="M58.57,42.74l0,0,.2-.2-.11.1Z"/><path class="cls-3" d="M52.4,32.39h0l.25-.26.1-.11a.71.71,0,0,0-.1.11Z"/><path class="cls-3" d="M49.71,33.37l0-.05-.18.19.12-.12Z"/><path class="cls-3" d="M49.25,33.84s0,0,0,0l.06-.06,0,0,0-.06Z"/><path class="cls-3" d="M58.7,42.6l-.06.07.11-.1.11-.11.1-.12a1.47,1.47,0,0,1-.19.16Z"/><path class="cls-3" d="M49.55,33.56l.14-.16-.12.12-.18.19,0,.06.17-.14Z"/><path class="cls-3" d="M39,36.54l.06-.06Z"/><path class="cls-3" d="M40.35,36.11l0,0,.05,0Z"/><path class="cls-4" d="M49.52,33.57c-.08.12-.17.24-.24.36a4.18,4.18,0,0,0-.41,1,6.74,6.74,0,0,0-.27,2.21,10.18,10.18,0,0,0,.82,3.53,4.25,4.25,0,0,0,.48.9,5.15,5.15,0,0,0,2.76,1.76,8.26,8.26,0,0,0,3.65.19A6.05,6.05,0,0,0,58,42.95a5,5,0,0,0,.72-.44l.07-.06A3.66,3.66,0,0,0,59.43,41a4.38,4.38,0,0,0,.07-1,5,5,0,0,0,0-.53,5.18,5.18,0,0,0-.16-.67,9.31,9.31,0,0,0-2.57-4.34,6.87,6.87,0,0,0-2-1.26,7.71,7.71,0,0,0-1.22-.37l-.66-.13-.36,0a1.59,1.59,0,0,0-.39,0A4.47,4.47,0,0,0,49.52,33.57Z"/><path class="cls-4" d="M67.33,77.66c-.41-2.7-.63-5.42-1.14-8.1a20.85,20.85,0,0,0-1-3.62c-.06-.15-.12-.3-.19-.45a1.24,1.24,0,0,1-.09-.45c0-.36,0-.7,0-1,0-.74,0-1.48-.06-2.22A39.47,39.47,0,0,0,63.92,53a18.64,18.64,0,0,0-.63-2,7.07,7.07,0,0,0-.86-1.68,15.29,15.29,0,0,0-1.82-2.2,7,7,0,0,0-2.68-1.54A8.61,8.61,0,0,0,56,45.25l-1.71-.14a22.09,22.09,0,0,0-6.19.25,21.19,21.19,0,0,0-6.73,2.93l-1,.66a9.54,9.54,0,0,0-.83.67Q38.73,50.3,38,51l-.71.67-.32.3-.08.08c-.4.42-.78.85-1.15,1.3a25.25,25.25,0,0,0-1.94,2.72A11.81,11.81,0,0,0,32.29,59,9,9,0,0,0,32,62.53a4,4,0,0,0,.22,1.1l.41.95c.29.65.59,1.29.91,1.93A37.69,37.69,0,0,0,43,79.12l.79.63c.24.18.51.35.75.55.41.36.81.74,1.19,1.12.78.8,1.5,1.63,2.21,2.49,1.42,1.72,2.76,3.5,4.29,5.11a17,17,0,0,0,5.27,3.91,12.59,12.59,0,0,0,1.62.6,4.61,4.61,0,0,0,1.32.24,14.71,14.71,0,0,0,1.65-.13,9.07,9.07,0,0,0,.91-.16,3.08,3.08,0,0,0,.75-.3,10.53,10.53,0,0,0,1.42-.83,7.5,7.5,0,0,0,.66-.5l.27-.23A9.23,9.23,0,0,0,67.7,89.1a12.54,12.54,0,0,0,.84-3.31,10.26,10.26,0,0,0,0-2c-.06-.69-.16-1.37-.27-2.05A27.39,27.39,0,0,1,67.33,77.66Z"/><path class="cls-4" d="M45.41,42.17a3.54,3.54,0,0,0,.26-1.72A5.23,5.23,0,0,0,44,37.13a4.49,4.49,0,0,0-1.65-1,4,4,0,0,0-1-.17,4.4,4.4,0,0,0-.5,0l-.27,0-.13,0s-.57.16-.77.25a3.75,3.75,0,0,0-.54.25l-.31.21c0,.07-.1.14-.14.23a3.22,3.22,0,0,0-.38,1.35,5.14,5.14,0,0,0,3.19,4.84,3.92,3.92,0,0,0,3.23-.27l.41-.24A2.78,2.78,0,0,0,45.41,42.17Z"/><path class="cls-4" d="M39.95,45.34c0-.11,0-.21.05-.32l0-.16a.41.41,0,0,0,0-.16,5.6,5.6,0,0,0-.27-.66,7.48,7.48,0,0,0-.79-1.23,8.93,8.93,0,0,0-1.83-1.75,2,2,0,0,0-.62-.33,2.75,2.75,0,0,0-.64,0l-.35,0-.17,0h-.13l-.05,0a1.19,1.19,0,0,0-.32.11,2.16,2.16,0,0,0-.3.14,2.75,2.75,0,0,0-.41.27,5.75,5.75,0,0,0-.37.59c-.11.2-.22.41-.32.63l-.15.34-.07.16a.57.57,0,0,0-.07.16,2.55,2.55,0,0,0,.21,1.16,4.35,4.35,0,0,0,.81,1.12,8.79,8.79,0,0,0,2.57,1.76,1,1,0,0,0,.39.15l.37,0a4,4,0,0,0,.7-.12,3.24,3.24,0,0,0,1.15-.49l.06,0a2,2,0,0,0,.14-.23A4,4,0,0,0,39.95,45.34Z"/><path class="cls-4" d="M35.8,50.11a4.38,4.38,0,0,0-1.26-2.82,4,4,0,0,0-1.34-.92,3.78,3.78,0,0,0-.81-.25,2.86,2.86,0,0,0-.85,0,3.21,3.21,0,0,0-1.33.53l0,.06a2.91,2.91,0,0,0-.35.76,4.06,4.06,0,0,0-.12,1.72,4.17,4.17,0,0,0,1.75,2.94,3,3,0,0,0,.78.36,2.62,2.62,0,0,0,.43.09,2.81,2.81,0,0,0,.54,0A4.48,4.48,0,0,0,35.11,52l.24-.15a2,2,0,0,0,.18-.32A3,3,0,0,0,35.8,50.11Z"/><path class="cls-4" d="M26.9,52.52h0a3.62,3.62,0,0,0-.46,1.76,6.42,6.42,0,0,0,.27,2A6.05,6.05,0,0,0,27.5,58a3.84,3.84,0,0,0,.55.61,1.63,1.63,0,0,0,.57.29,2.19,2.19,0,0,0,.69.13,5.15,5.15,0,0,0,1.94-.33,3.41,3.41,0,0,0,.61-.34,3.54,3.54,0,0,0,.4-2.72A4.81,4.81,0,0,0,30.71,53a3.77,3.77,0,0,0-1.33-.75,3.2,3.2,0,0,0-.78-.15,3.45,3.45,0,0,0-.41,0l-.21,0H27.8A6.48,6.48,0,0,0,26.9,52.52Z"/><path class="cls-5" d="M64.14,50.77c-.11-.31-.23-.61-.36-.91a5.44,5.44,0,0,0-.46-.92,20.71,20.71,0,0,0-1.81-2.24A7.12,7.12,0,0,0,59,45.08a7.79,7.79,0,0,0-1.9-.49l-1.75-.15-.87-.06a8.43,8.43,0,0,1-1.24-.06H52.14A17,17,0,0,0,46,45.56a25.26,25.26,0,0,0-3.52,1.81,14.82,14.82,0,0,0-1.91,1.31c-.51.43-1,.87-1.51,1.31a35,35,0,0,0-4.93,5.27c-.46.64-.9,1.3-1.3,2,0-.06.06-.13.08-.21a4.11,4.11,0,0,0-.19-2.89,4.78,4.78,0,0,0-.42-.78h.16a4.62,4.62,0,0,0,1.92-.52,3.25,3.25,0,0,0,.67-.51c.27-.28.57-.55.82-.85a3,3,0,0,0,.43-3.18s0-.1-.06-.15a.25.25,0,0,0,.11,0,5.67,5.67,0,0,0,.75-.06,3.67,3.67,0,0,0,1.24-.41,5,5,0,0,0,1.21-1l.16-.17,0,0a3.73,3.73,0,0,0,1-2.19.32.32,0,0,0,0-.15l-.05-.16v0a3.81,3.81,0,0,0,1.85.27,4.14,4.14,0,0,0,1.69-.58,5.44,5.44,0,0,0,1.19-1.05,3.78,3.78,0,0,0,.66-.85,4,4,0,0,0-.08-3.5,5,5,0,0,0-2.7-2.63,3.88,3.88,0,0,0-1.83-.23l-.33.05,0,0h0l-.48.15c-.14,0-.28.11-.42.17a3.72,3.72,0,0,0-.7.44,3.31,3.31,0,0,0-.36.33h0l-.06.06c-.24.24-.49.48-.71.74a2.84,2.84,0,0,0-.4.6,3.6,3.6,0,0,0-.22,2.42l-.12-.08a1.91,1.91,0,0,0-.29-.15,1.63,1.63,0,0,0-.46-.07,4.51,4.51,0,0,0-.66,0H36s-.11,0-.15,0h0l-.36.14a2.63,2.63,0,0,0-.34.18,3.3,3.3,0,0,0-.57.41l-.3.29-.43.44c-.09.09-.18.18-.26.27a4.83,4.83,0,0,0-.4.55,9,9,0,0,0-.65,1.25l-.14.31a.86.86,0,0,0,0,.34,2.14,2.14,0,0,0,.09.55,2.28,2.28,0,0,0,.25.56,3,3,0,0,0-.51,0,3.19,3.19,0,0,0-1.67.81l-.13.13a5.82,5.82,0,0,0-.56.58l-.18.19a2.27,2.27,0,0,0-.26.34,3.28,3.28,0,0,0-.35.76,4.35,4.35,0,0,0,.36,3.26,3.74,3.74,0,0,0-.54,0l-.34,0h-.09a5.55,5.55,0,0,0-.91.38,2.27,2.27,0,0,0-.34.27l-.08.09c0-.06-.06,0-.19.18l-.39.39h0l-.22.24a3,3,0,0,0-.64,1.65,5.7,5.7,0,0,0,.13,2,6.42,6.42,0,0,0,.71,1.81,4.21,4.21,0,0,0,.51.7l.29.27a2.06,2.06,0,0,0,.63.3,3,3,0,0,0,.68.1c.19,0,.37,0,.55,0a4.68,4.68,0,0,0,.95-.18,3.45,3.45,0,0,0,1.44-.88,8.73,8.73,0,0,0,.85-.91c-.07.11-.13.22-.19.33a7.58,7.58,0,0,0-.67,1.43,10.08,10.08,0,0,0-.33,1.51,9,9,0,0,0-.07,1.9,8.6,8.6,0,0,0,.13,1,4.65,4.65,0,0,0,.4,1.05c.57,1.29,1.18,2.56,1.85,3.81A41.23,41.23,0,0,0,38,75.56a31.62,31.62,0,0,0,5.59,5.35A16.55,16.55,0,0,1,46,83.24c.75.83,1.45,1.69,2.15,2.56a50.23,50.23,0,0,0,4.39,5,14.89,14.89,0,0,0,5.64,3.46,5,5,0,0,0,1.41.32,12.34,12.34,0,0,0,1.54-.08,5.48,5.48,0,0,0,1.69-.38,10.27,10.27,0,0,0,1.46-.81A13.21,13.21,0,0,0,66.82,91a9.44,9.44,0,0,0,1.61-2.62,12.72,12.72,0,0,0,.81-3.26,10.09,10.09,0,0,0,0-2c-.06-.69-.15-1.37-.28-2.05a43.48,43.48,0,0,1-1.38-7.74A36.32,36.32,0,0,0,66,65.6c-.1-.27-.2-.53-.31-.79a2.89,2.89,0,0,1-.11-1.06c0-.74,0-1.47-.05-2.21,0-1.49-.09-3-.21-4.47a30.45,30.45,0,0,0-.63-4.31A18.4,18.4,0,0,0,64.14,50.77ZM38.3,38.37A3.24,3.24,0,0,1,38.68,37c0-.08.1-.15.14-.23l.31-.21a3.66,3.66,0,0,1,.54-.25c.2-.09.76-.25.77-.25l.13,0,.27,0a4.5,4.5,0,0,1,.5,0,4,4,0,0,1,1,.17,4.49,4.49,0,0,1,1.65,1,5.22,5.22,0,0,1,1.7,3.33,3.52,3.52,0,0,1-.26,1.72,2.79,2.79,0,0,1-.26.48l-.41.24a3.92,3.92,0,0,1-3.23.27,5.14,5.14,0,0,1-3.19-4.84Zm-5.19,4.86s0-.11.07-.16l.07-.16.15-.34c.1-.22.21-.43.32-.63a5.57,5.57,0,0,1,.37-.59,2.62,2.62,0,0,1,.41-.27,2.17,2.17,0,0,1,.3-.14,1.17,1.17,0,0,1,.32-.11l.18-.05.17,0,.35,0a2.8,2.8,0,0,1,.64,0,2,2,0,0,1,.62.33,8.92,8.92,0,0,1,1.83,1.75,7.45,7.45,0,0,1,.79,1.23,5.61,5.61,0,0,1,.27.66.42.42,0,0,1,0,.16l0,.16c0,.11,0,.22-.05.32a3.94,3.94,0,0,1-.43,1.14,2.07,2.07,0,0,1-.14.23l-.06,0a3.24,3.24,0,0,1-1.15.49,4.09,4.09,0,0,1-.7.12l-.37,0a1,1,0,0,1-.39-.15,8.78,8.78,0,0,1-2.57-1.76,4.32,4.32,0,0,1-.81-1.12A2.55,2.55,0,0,1,33.11,43.24Zm-3.43,6a4.06,4.06,0,0,1,.12-1.72,2.91,2.91,0,0,1,.35-.76l0-.06a3.22,3.22,0,0,1,1.33-.53,2.86,2.86,0,0,1,.85,0,3.76,3.76,0,0,1,.81.25,4,4,0,0,1,1.34.92,4.38,4.38,0,0,1,1.26,2.82,3,3,0,0,1-.27,1.43,1.88,1.88,0,0,1-.18.32l-.24.15a4.46,4.46,0,0,1-1.91.53,2.74,2.74,0,0,1-.54,0,2.59,2.59,0,0,1-.43-.09,3,3,0,0,1-.78-.36A4.17,4.17,0,0,1,29.68,49.21Zm2.17,9.22a3.39,3.39,0,0,1-.61.34,5.13,5.13,0,0,1-1.94.33,2.24,2.24,0,0,1-.69-.13,1.65,1.65,0,0,1-.57-.3,3.85,3.85,0,0,1-.55-.61,6,6,0,0,1-.81-1.72,6.4,6.4,0,0,1-.27-2,3.61,3.61,0,0,1,.46-1.76h0a6.51,6.51,0,0,1,.91-.37H28l.21,0a3.28,3.28,0,0,1,.41,0,3.17,3.17,0,0,1,.78.15,3.76,3.76,0,0,1,1.33.75,4.81,4.81,0,0,1,1.56,2.62A3.53,3.53,0,0,1,31.85,58.42ZM63.9,53.09a39.51,39.51,0,0,1,.93,8.75c0,.73,0,1.47.06,2.22,0,.34,0,.69,0,1a1.24,1.24,0,0,0,.09.45c.07.15.13.3.19.45a20.85,20.85,0,0,1,1,3.62c.51,2.68.73,5.39,1.14,8.1a27.37,27.37,0,0,0,.9,4.09c.11.68.22,1.36.27,2.05a10.3,10.3,0,0,1,0,2,12.58,12.58,0,0,1-.83,3.31,9.27,9.27,0,0,1-1.57,2.53l-.27.23a7.58,7.58,0,0,1-.65.5,10.62,10.62,0,0,1-1.42.83,3.18,3.18,0,0,1-.75.3c-.29.07-.6.11-.91.16a14.73,14.73,0,0,1-1.64.13,4.62,4.62,0,0,1-1.32-.24,12.58,12.58,0,0,1-1.62-.6,17.06,17.06,0,0,1-5.27-3.91C50.72,87.47,49.38,85.69,48,84c-.71-.86-1.44-1.69-2.21-2.48-.38-.38-.78-.77-1.19-1.13-.23-.2-.51-.37-.75-.55L43,79.17A37.68,37.68,0,0,1,33.5,66.56c-.31-.64-.61-1.28-.91-1.93l-.41-.95a4,4,0,0,1-.22-1.1,9.06,9.06,0,0,1,.31-3.52,11.83,11.83,0,0,1,1.47-2.93,25.34,25.34,0,0,1,1.94-2.72c.37-.45.76-.88,1.15-1.3l.08-.08.32-.3.71-.67c.51-.47,1-.93,1.56-1.37a9.59,9.59,0,0,1,.83-.67l1-.66a21.19,21.19,0,0,1,6.74-2.93,22.08,22.08,0,0,1,6.19-.25L56,45.3a8.62,8.62,0,0,1,1.92.41,7,7,0,0,1,2.68,1.54,15.34,15.34,0,0,1,1.82,2.2,7,7,0,0,1,.86,1.68A18.78,18.78,0,0,1,63.9,53.09Z"/><path class="cls-4" d="M86.06,58.35a10,10,0,0,0,.5-2.34,6.64,6.64,0,0,0-.83-4.21,3.76,3.76,0,0,0-1.46-1.33A4.65,4.65,0,0,0,82,50a1.3,1.3,0,0,0-.29,0l-.22,0-.44.11a7.63,7.63,0,0,0-.82.26,7.45,7.45,0,0,0-1.44.7,6.66,6.66,0,0,0-.86.65c-.13.15-.25.3-.36.46a8.92,8.92,0,0,0-1.15,2.28A13,13,0,0,0,76,55.86c0,.12-.06.25-.08.37a2.82,2.82,0,0,0-.06.35,5.13,5.13,0,0,0,0,.54,4,4,0,0,0,.47,1.78A4.19,4.19,0,0,0,79,60.83a7.92,7.92,0,0,0,5.36-.58,5.36,5.36,0,0,0,.75-.44l.31-.23a2.37,2.37,0,0,0,.2-.3A4.19,4.19,0,0,0,86.06,58.35Z"/><path class="cls-3" d="M85.22,59.88l0,0Z"/><path class="cls-6" d="M86.13,50.62a3.65,3.65,0,0,0-1.38-1,4.73,4.73,0,0,0-2-.33H82.5l-.17,0-.36.07c-.22.05-.44.11-.66.18a8,8,0,0,0-1.2.49,7.4,7.4,0,0,0-1.05.65,11.21,11.21,0,0,0-1.23,1.15,9.32,9.32,0,0,0-1,1.11A8.09,8.09,0,0,0,76.22,54a11,11,0,0,0-.88,2.56c0,.11,0,.23-.07.34a3,3,0,0,0-.06.38c0,.18,0,.36,0,.53a4.54,4.54,0,0,0,.15,1,3.61,3.61,0,0,0,.81,1.5,5,5,0,0,0,3.05,1.43,8,8,0,0,0,3.66-.4,6.44,6.44,0,0,0,1.57-.78,5.38,5.38,0,0,0,.64-.53l.1-.1,0,0c.25-.24.49-.48.72-.73l.25-.3A5.36,5.36,0,0,0,87,57a10.26,10.26,0,0,0,.34-2.35A6,6,0,0,0,86.13,50.62Zm-.89,9.25s0,0,0,0Zm.51-.53h0S85.78,59.3,85.75,59.33ZM86.56,56a10,10,0,0,1-.5,2.34,4.19,4.19,0,0,1-.4.94,2.37,2.37,0,0,1-.2.3l-.31.23a5.36,5.36,0,0,1-.75.44,7.92,7.92,0,0,1-5.36.58,4.19,4.19,0,0,1-2.66-1.93,4,4,0,0,1-.47-1.78,5.13,5.13,0,0,1,0-.54,2.82,2.82,0,0,1,.06-.35c0-.12.06-.24.08-.37a13,13,0,0,1,.38-1.35,8.92,8.92,0,0,1,1.15-2.28c.11-.16.24-.31.36-.46a6.66,6.66,0,0,1,.86-.65,7.45,7.45,0,0,1,1.44-.7,7.63,7.63,0,0,1,.82-.26l.44-.11.22,0A1.3,1.3,0,0,1,82,50a4.65,4.65,0,0,1,2.26.45,3.76,3.76,0,0,1,1.46,1.33A6.64,6.64,0,0,1,86.56,56Z"/><path class="cls-4" d="M74.32,65.82l-.39.62a5.69,5.69,0,0,0-.37.6,14.77,14.77,0,0,0-1,3.39,36.08,36.08,0,0,0-.29,7.61c.06,1.28.14,2.56.2,3.84,0,.18,0,.36,0,.53a1.15,1.15,0,0,1,0,.44l-.23.73c-.14.53-.27,1.07-.36,1.6a54,54,0,0,0-.6,7.23,38.74,38.74,0,0,1-.72,7,24.3,24.3,0,0,0-.1,2.77,7.3,7.3,0,0,0,.13,1.36c.08.4.18.8.3,1.19A10.24,10.24,0,0,0,73,108.67a9,9,0,0,0,2.49,2,11.27,11.27,0,0,0,1.54.69,5.51,5.51,0,0,0,1.67.21,11.18,11.18,0,0,0,1.51,0,4.71,4.71,0,0,0,1.32-.4,13.17,13.17,0,0,0,2.91-1.64,15.53,15.53,0,0,0,1.28-1.06l.3-.27.06-.06.52-.58c.72-.83,1.38-1.71,2-2.61,1.27-1.79,2.44-3.65,3.79-5.37a26.85,26.85,0,0,1,2.36-2.66c.43-.42.9-.8,1.34-1.21l.26-.26.22-.24.58-.64a34.59,34.59,0,0,0,4.26-6.14,49.08,49.08,0,0,0,3.19-7.13l.35-1a3.88,3.88,0,0,0,.22-1,8.92,8.92,0,0,0-.1-2.1,10.39,10.39,0,0,0-.44-1.67c-.09-.23-.18-.45-.27-.67A6.81,6.81,0,0,0,104,74a26.52,26.52,0,0,0-4.52-5.33c-1-.86-2-1.65-3-2.4A17,17,0,0,0,94.63,65c-.62-.33-1.24-.67-1.89-1a19,19,0,0,0-6.33-1.85,23.86,23.86,0,0,0-5.86.35l-1.61.27a7.91,7.91,0,0,0-1.81.57,7.19,7.19,0,0,0-1.4.79c-.18.13-.35.27-.53.41a.94.94,0,0,1-.08.1A12.33,12.33,0,0,0,74.32,65.82Z"/><path class="cls-3" d="M96.47,95.27l-.09.09Z"/><path class="cls-3" d="M86.17,108l-.1.1,0,0-.09.09Z"/><path class="cls-4" d="M93.54,52.37a3.27,3.27,0,0,0-.45,0,3.83,3.83,0,0,0-.87.19,3.89,3.89,0,0,0-1,.5c-.12.07-.22.17-.34.26a5.43,5.43,0,0,0-1,1.91,4.28,4.28,0,0,0-.08,2.11,3.06,3.06,0,0,0,1.06,1.72,3.47,3.47,0,0,0,1,.53,4.15,4.15,0,0,0,1,.24,3.79,3.79,0,0,0,1.79-.23,4.87,4.87,0,0,0,.78-.4c.12-.09.24-.17.35-.27l0,0a3.58,3.58,0,0,0,.26-.36,6.66,6.66,0,0,0,.44-.77,4.47,4.47,0,0,0,.24-3.3,2.9,2.9,0,0,0-1-1.31,3.31,3.31,0,0,0-.8-.46,4.8,4.8,0,0,0-.48-.16,2.56,2.56,0,0,0-.55-.11C94,52.36,93.6,52.37,93.54,52.37Z"/><path class="cls-4" d="M99.14,56.65h-.42a1.84,1.84,0,0,0-.6.11,2.85,2.85,0,0,0-.58.4l-.13.12a.6.6,0,0,0-.1.11,7.63,7.63,0,0,0-1.38,2.26,3.92,3.92,0,0,0-.19.63.74.74,0,0,0,0,.32c0,.09,0,.19.08.29A3.74,3.74,0,0,0,96.34,62a3.16,3.16,0,0,0,1.85,1.28,4.56,4.56,0,0,0,1.36.11.46.46,0,0,0,.22-.05l.17-.1.35-.21c.25-.15.48-.31.71-.49s.45-.35.66-.54l0,0a4.32,4.32,0,0,0,.71-1.22,2.22,2.22,0,0,0,.12-.57c0-.1,0-.2,0-.3a.77.77,0,0,0,0-.31,12.86,12.86,0,0,0-.71-1.22,4.67,4.67,0,0,0-.92-1,3.18,3.18,0,0,0-.59-.37l-.37-.15a1.34,1.34,0,0,0-.36-.09C99.54,56.64,99.21,56.65,99.14,56.65Z"/><path class="cls-4" d="M101.87,62.12a4.1,4.1,0,0,0-.58.4l-.1.13a4.19,4.19,0,0,0-.77,3.15,2.75,2.75,0,0,0,.69,1.39,3.2,3.2,0,0,0,1.52.86,5.33,5.33,0,0,0,1.11.14,2.65,2.65,0,0,0,.61,0,3.18,3.18,0,0,0,.46-.12,3.07,3.07,0,0,0,.8-.42l0-.07a4.4,4.4,0,0,0,.63-3.61,3.1,3.1,0,0,0-.91-1.53,3.07,3.07,0,0,0-1.82-.75,2.88,2.88,0,0,0-.87.13A4.15,4.15,0,0,0,101.87,62.12Z"/><path class="cls-4" d="M107.61,67.41a3.62,3.62,0,0,0-2.31.8h0a4.83,4.83,0,0,0-1,3.05,3.1,3.1,0,0,0,1.39,2.59,3.72,3.72,0,0,0,1.77.49,3.5,3.5,0,0,0,1.25-.1,2.92,2.92,0,0,0,.52-.22,5.68,5.68,0,0,0,.7-1.64,6.41,6.41,0,0,0,.19-2.16,3.74,3.74,0,0,0-.63-1.86,2.3,2.3,0,0,0-.69-.62,2.12,2.12,0,0,0-1-.31C107.82,67.4,107.65,67.41,107.61,67.41Z"/><path class="cls-3" d="M108.91,74.47l0,0Z"/><path class="cls-7" d="M109.63,67.09a2.09,2.09,0,0,0-1.09-.38c0-.1-.77,0-.86,0a3.32,3.32,0,0,0-.81.23,4.09,4.09,0,0,0-.71.41,7.93,7.93,0,0,0-1,.93,6.62,6.62,0,0,0-.72.85,4.58,4.58,0,0,0-.41.71,4.81,4.81,0,0,0-.44,1.58c0,.07,0,.15,0,.23l-.05-.08a26.64,26.64,0,0,0-4.93-5c-.53-.42-1.07-.83-1.61-1.23l-.85-.62a10.82,10.82,0,0,0-1-.6,29,29,0,0,0-3.59-1.65,17,17,0,0,0-6-1.1,36.75,36.75,0,0,0-6.07.72,7.53,7.53,0,0,0-1.8.62,7.42,7.42,0,0,0-1.36.8,10.69,10.69,0,0,0-1.21,1.13,10.2,10.2,0,0,0-1,1.09c-.28.37-.53.76-.77,1.14a8.26,8.26,0,0,0-.74,1.36,16,16,0,0,0-.86,3.46,40.15,40.15,0,0,0-.16,7.65c.06,1.28.13,2.55.2,3.84a1.1,1.1,0,0,1,0,.42,3.5,3.5,0,0,0-.12.35c-.08.27-.15.54-.22.81a16.2,16.2,0,0,0-.33,1.64,64.31,64.31,0,0,0-.52,7,37.8,37.8,0,0,1-.7,6.74,20.05,20.05,0,0,0-.11,2.06,10.54,10.54,0,0,0,.12,2A12.41,12.41,0,0,0,71,107.52a9.35,9.35,0,0,0,4.6,4.25c.25.11.51.21.77.3a3.17,3.17,0,0,0,.84.14,12.63,12.63,0,0,0,1.7,0,4,4,0,0,0,1.17-.17,13.88,13.88,0,0,0,1.6-.66A18.1,18.1,0,0,0,87,107.16c2.75-3,4.58-6.79,7.33-9.8a35.93,35.93,0,0,0,5-5.26,37.55,37.55,0,0,0,3.92-6.41c.58-1.17,1.1-2.37,1.58-3.59.25-.62.48-1.25.71-1.89l.32-.93a3.93,3.93,0,0,0,.17-1.13,9,9,0,0,0-.5-3.34A4.59,4.59,0,0,0,106,75a5.15,5.15,0,0,0,1,.1c.2,0,.4,0,.6,0a2.33,2.33,0,0,0,.74-.24,3.26,3.26,0,0,0,.36-.21l.07-.06.08-.07,0,0,.19-.2a7.73,7.73,0,0,0,.65-.69,4.25,4.25,0,0,0,.48-.8,6.3,6.3,0,0,0,.57-2C111,69.47,110.78,67.86,109.63,67.09Zm-4.52,10a8.92,8.92,0,0,1,.1,2.1,3.88,3.88,0,0,1-.22,1l-.35,1a49.08,49.08,0,0,1-3.19,7.13,34.59,34.59,0,0,1-4.26,6.14l-.58.64-.22.24.09-.09-.09.09-.26.26c-.44.42-.91.79-1.34,1.21a26.85,26.85,0,0,0-2.36,2.66c-1.35,1.72-2.52,3.59-3.79,5.37-.64.9-1.3,1.78-2,2.61l-.52.58-.06.06,0,0,.1-.1-.22.22.09-.09-.3.27a15.53,15.53,0,0,1-1.28,1.06,13.17,13.17,0,0,1-2.91,1.64,4.71,4.71,0,0,1-1.32.4,11.18,11.18,0,0,1-1.51,0,5.51,5.51,0,0,1-1.67-.21,11.27,11.27,0,0,1-1.54-.69,9,9,0,0,1-2.49-2,10.24,10.24,0,0,1-2.09-3.88c-.12-.39-.22-.79-.3-1.19a7.3,7.3,0,0,1-.13-1.36,24.3,24.3,0,0,1,.1-2.77,38.74,38.74,0,0,0,.72-7,54,54,0,0,1,.6-7.23c.09-.53.22-1.07.36-1.6l.23-.73a1.15,1.15,0,0,0,0-.44c0-.17,0-.34,0-.53-.07-1.28-.15-2.57-.2-3.84a36.08,36.08,0,0,1,.29-7.61,14.77,14.77,0,0,1,1-3.39,5.69,5.69,0,0,1,.37-.6l.39-.62a12.33,12.33,0,0,1,.79-1.1.94.94,0,0,0,.08-.1c.17-.14.35-.28.53-.41a7.19,7.19,0,0,1,1.4-.79,7.91,7.91,0,0,1,1.81-.57l1.61-.27a23.86,23.86,0,0,1,5.86-.35,19,19,0,0,1,6.33,1.85c.64.3,1.27.63,1.89,1a17,17,0,0,1,1.84,1.23c1,.75,2,1.55,3,2.4A26.52,26.52,0,0,1,104,74a6.81,6.81,0,0,1,.43.72c.09.22.18.44.27.67A10.39,10.39,0,0,1,105.11,77.07Zm5-6.83a6.41,6.41,0,0,1-.19,2.16,5.68,5.68,0,0,1-.7,1.64,2.92,2.92,0,0,1-.52.22,3.5,3.5,0,0,1-1.25.1,3.72,3.72,0,0,1-1.77-.49,3.1,3.1,0,0,1-1.39-2.59,4.83,4.83,0,0,1,1-3.05h0a3.62,3.62,0,0,1,2.31-.8s.21,0,.21,0a2.12,2.12,0,0,1,1,.31,2.3,2.3,0,0,1,.69.62A3.74,3.74,0,0,1,110.12,70.24Z"/><path class="cls-8" d="M91.14,60.33a4.11,4.11,0,0,0,1,.24,4,4,0,0,0,3.27-1.18,8.34,8.34,0,0,0,1.67-2,5.3,5.3,0,0,0,.58-1.65,3.49,3.49,0,0,0-.8-3.06,3.41,3.41,0,0,0-.89-.63,4.3,4.3,0,0,0-.57-.23,2.65,2.65,0,0,0-.67-.15c0-.06-.49-.05-.56-.06a3.44,3.44,0,0,0-.58.05,3.91,3.91,0,0,0-1.08.35,4.09,4.09,0,0,0-.93.61c-.24.2-.46.43-.68.66s-.44.45-.64.69a4.94,4.94,0,0,0-1.13,4.08,3.09,3.09,0,0,0,1.05,1.73A3.28,3.28,0,0,0,91.14,60.33Zm-1.31-3a4.28,4.28,0,0,1,.08-2.11,5.43,5.43,0,0,1,1-1.91c.12-.09.22-.18.34-.26a3.89,3.89,0,0,1,1-.5,3.83,3.83,0,0,1,.87-.19,3.27,3.27,0,0,1,.45,0c.06,0,.44,0,.44.06a2.56,2.56,0,0,1,.55.11,4.8,4.8,0,0,1,.48.16,3.31,3.31,0,0,1,.8.46,2.9,2.9,0,0,1,1,1.31,4.47,4.47,0,0,1-.24,3.3,6.66,6.66,0,0,1-.44.77,3.58,3.58,0,0,1-.26.36l0,0c-.11.09-.23.18-.35.27a4.87,4.87,0,0,1-.78.4,3.79,3.79,0,0,1-1.79.23,4.15,4.15,0,0,1-1-.24,3.47,3.47,0,0,1-1-.53A3.06,3.06,0,0,1,89.83,57.36Z"/><path class="cls-9" d="M96.37,58.41a7,7,0,0,0-1.27,2.32c0,.1-.06.2-.07.3a.68.68,0,0,0,0,.32c0,.2.1.39.17.59a3.94,3.94,0,0,0,.57,1,3.28,3.28,0,0,0,2,1.1,5.33,5.33,0,0,0,.68.05h.35A.42.42,0,0,0,99,64l.21-.11a9.44,9.44,0,0,0,1.42-1,15.12,15.12,0,0,0,1.6-1.57,4.52,4.52,0,0,0,.78-1.16,2.38,2.38,0,0,0,.23-1.18c0-.05,0-.1,0-.16a.38.38,0,0,0-.05-.16l-.17-.32-.36-.61a5.17,5.17,0,0,0-1-1.16,3.45,3.45,0,0,0-.63-.42c-.12-.07-.25-.12-.38-.17a1.78,1.78,0,0,0-.41-.11c0-.05-.25,0-.3,0h-.34a3.3,3.3,0,0,0-.69.09,1.42,1.42,0,0,0-.51.29,9.39,9.39,0,0,0-.93.87A15.62,15.62,0,0,0,96.37,58.41Zm1.75-1.64a1.84,1.84,0,0,1,.6-.11h.42c.06,0,.39,0,.4,0a1.34,1.34,0,0,1,.36.09l.37.15a3.18,3.18,0,0,1,.59.37,4.67,4.67,0,0,1,.92,1,12.86,12.86,0,0,1,.71,1.22.77.77,0,0,1,0,.31c0,.1,0,.2,0,.3a2.22,2.22,0,0,1-.12.57,4.32,4.32,0,0,1-.71,1.22l0,0c-.21.19-.43.37-.66.54s-.47.34-.71.49l-.35.21-.17.1a.46.46,0,0,1-.22.05,4.56,4.56,0,0,1-1.36-.11A3.16,3.16,0,0,1,96.34,62a3.74,3.74,0,0,1-.48-1.05c0-.1-.06-.2-.08-.29a.74.74,0,0,1,0-.32,3.92,3.92,0,0,1,.19-.63,7.63,7.63,0,0,1,1.38-2.26.6.6,0,0,1,.1-.11l.13-.12A2.85,2.85,0,0,1,98.12,56.77Z"/><path class="cls-10" d="M102.56,61.41a4.12,4.12,0,0,0-.72.51c-.23.22-.46.45-.69.68s-.33.35-.49.54a4.34,4.34,0,0,0-1,3.12,3,3,0,0,0,.55,1.45,2.88,2.88,0,0,0,1.37,1,4.52,4.52,0,0,0,1,.22,3.9,3.9,0,0,0,1.17,0,2.77,2.77,0,0,0,.87-.34,4.35,4.35,0,0,0,.91-.78,6.24,6.24,0,0,0,.94-1.09,3.87,3.87,0,0,0,.41-.84,4.77,4.77,0,0,0,.25-1.87,3.64,3.64,0,0,0-.56-1.72,2.91,2.91,0,0,0-1.45-1.12,3.32,3.32,0,0,0-.84-.18,3.12,3.12,0,0,0-.9.13A3.7,3.7,0,0,0,102.56,61.41Zm2.82,1a3.1,3.1,0,0,1,.91,1.53,4.4,4.4,0,0,1-.63,3.61l0,.07a3.07,3.07,0,0,1-.8.42,3.18,3.18,0,0,1-.46.12,2.65,2.65,0,0,1-.61,0,5.33,5.33,0,0,1-1.11-.14,3.2,3.2,0,0,1-1.52-.86,2.75,2.75,0,0,1-.69-1.39,4.19,4.19,0,0,1,.77-3.15l.1-.13a4.1,4.1,0,0,1,.58-.4,4.15,4.15,0,0,1,.81-.32,2.88,2.88,0,0,1,.88-.13A3.07,3.07,0,0,1,105.38,62.41Z"/><path class="cls-11" d="M13,37.12c1-1.21,1.9-2.41,2.85-3.59-.13-1.07-.21-2.11-.25-3.14l2.63-1c0,.36,0,.71.09,1q2.07-2.57,4.12-5l2.19,2-5.77,7.08c.09.53.18,1,.28,1.54a34.82,34.82,0,0,1,2.56-4.36,5.7,5.7,0,0,1,2.62-2.24q1.34-.7,3.85,1.14l.38.27a19.74,19.74,0,0,1,4.1,4.25l-2.31,2.12a15.56,15.56,0,0,0-3.43-3.76c-1-.72-1.7-1-2.19-.93a4,4,0,0,0-1.14,1.07A26.53,26.53,0,0,0,22.11,36a16.83,16.83,0,0,0-.77,1.74c1-1.18,2.05-2.29,3.08-3.34l1.89,1.68q-1.71,1.8-3.27,3.5l1.07.64c.77-1.33,1.48-2.6,2.15-3.83l2.33.84a45.85,45.85,0,0,1-2.32,4.25c.31.16.61.33.9.5l-1.65,2.79c-2.07-1.18-4.15-2.37-6.2-3.58l-2,.64c-.34-1.5-.63-2.95-.86-4.34q-.68.86-1.37,1.68Z"/><path class="cls-12" d="M39.89,15.57l1.29,2.17-.82.38c.24.45.48.91.73,1.35a14,14,0,0,1,1.44,0l.08.67q2.07-1.36,4.16-2.54-.43-.51-.83-1.1-.67-1-1.37-2.17a1.74,1.74,0,0,1-.18.52,0,0,0,0,0,0,0,2.72,2.72,0,0,1,.59.56,2.84,2.84,0,0,1,.56.83,1.5,1.5,0,0,1-.05,1.43,2.86,2.86,0,0,1-1.33,1.11l-.21.09a3.1,3.1,0,0,1-1.2.29,1.52,1.52,0,0,1-1.36-1,4,4,0,0,1-.23-1.72,1.07,1.07,0,0,1-.85-.72,5,5,0,0,1-.2-2.36q.37-1.39.86-1.62a3.19,3.19,0,0,1,2,.28,5.56,5.56,0,0,1,.65.4c-.42-.79-.83-1.64-1.23-2.53L44.5,9a36.5,36.5,0,0,0,2.58,5,7.91,7.91,0,0,1,0-1A.29.29,0,0,1,47,13a.92.92,0,0,1-.83-.65A5,5,0,0,1,45.89,10c.2-.9.47-1.42.79-1.56a3.33,3.33,0,0,1,2.08.31,3.37,3.37,0,0,1,1.56,1.36,1.26,1.26,0,0,1-.07,1.28,4.52,4.52,0,0,1,.77.72,3.09,3.09,0,0,1,.54.83,1.29,1.29,0,0,1-.06,1.29,4.42,4.42,0,0,1,1.2.41l-.25.6.88,1.55-1.2.53,1.6,1.1c-.19.26-.37.54-.57.79a8.86,8.86,0,0,0,1.65.22l-.09,2.44a8,8,0,0,1-3-.47l-1.4,2.13-1.66-1.15c.37-.66.76-1.3,1.16-1.94a.16.16,0,0,1-.08,0,17.4,17.4,0,0,1-1.4-1.16l-1,.56c-.09.39-.18.75-.27,1.1a6.69,6.69,0,0,1,1.62.61l-.77,2c-.4-.15-.83-.29-1.28-.41-.12.73-.22,1.46-.28,2.2l-2.44-.51c.18-1.17.42-2.26.68-3.28l-1.15.76-.65-1.16.05.57-.55,0q.76,1.42,1.53,2.91l-2.17,1.25c-.65-1.23-1.3-2.41-1.91-3.54-.14.32-.3.66-.47,1l-1.76-1.18a21.79,21.79,0,0,1,1-2.18c-.11-.21-.21-.42-.33-.61-.35.22-.7.45-1,.7l-1.27-2.18L37,17.1l-1.18-2.22L38,13.63c.4.74.79,1.5,1.21,2.28C39.41,15.78,39.66,15.67,39.89,15.57Zm2.36-1.09c.3-.13.42-.24.38-.33-.34-.65-.63-.92-.88-.8s-.17.57.09,1.15C41.9,14.58,42,14.57,42.24,14.48Zm1.18,2.9a.46.46,0,0,0,.32-.41.92.92,0,0,0-.12-.54,2.17,2.17,0,0,0-.55-.58l-.33.15a3.61,3.61,0,0,0,0,.9,1.17,1.17,0,0,0,.34.5A.32.32,0,0,0,43.42,17.37ZM48,11.08c.4-.18.59-.31.55-.4Q48,9.73,47.43,10c-.13.16-.06.52.19,1.1C47.68,11.16,47.81,11.16,48,11.08Zm2.45,4.59-.3-.07.1-.3-.06,0-.22.1a4.18,4.18,0,0,1-1.31.35H48.4a6.75,6.75,0,0,0,.57.63C49.46,16.14,49.95,15.9,50.45,15.67Zm-1.65-3.2a3.55,3.55,0,0,0-.08,1.09.84.84,0,0,0,.36.47c.09.06.24,0,.45,0a.34.34,0,0,0,.22-.35.88.88,0,0,0-.11-.48,2.64,2.64,0,0,0-.72-.74h0Zm2.4,5.9c.25-.33.49-.65.75-1l-1.28.6C50.85,18.13,51,18.26,51.2,18.36Z"/><path class="cls-13" d="M67.36,4.58l1.52.49a32.25,32.25,0,0,1,6.06,0,12.24,12.24,0,0,1,3.16.6,3.79,3.79,0,0,1,2.21,1.59,4.2,4.2,0,0,1,.51,3l0,.39a3.87,3.87,0,0,1-1.22,2.54q-1.38,1.36-5.68.94l-.66-.06c0,.32,0,.65,0,1,1.87,0,3.72.09,5.56.27l0,2.46c-1.91-.19-3.72-.29-5.43-.3,0,.15,0,.29,0,.45q2.51.64,4.93,1.38l-.7,2.52q-5-1.44-10-2.63c-.08.51-.15,1-.22,1.56l-2.89-.59a32.91,32.91,0,0,1,1.46-6.83l2.88.59c-.29.9-.54,1.8-.75,2.73l2,.47c0-1.26-.09-2.42-.13-3.48a11,11,0,0,1-2.72-.84,3.44,3.44,0,0,1-1.92-3.55A10.18,10.18,0,0,1,67.36,4.58Zm7,3.05a25,25,0,0,0-5.56.07,3.52,3.52,0,0,0-.28,1.08,1.8,1.8,0,0,0,.82,1.9,11.92,11.92,0,0,0,4.15.88,15,15,0,0,0,2.34.07,2,2,0,0,0,1.29-.47A1.57,1.57,0,0,0,77.69,10,1.81,1.81,0,0,0,77,8.14,8.58,8.58,0,0,0,74.38,7.63Z"/><path class="cls-14" d="M105.19,17.27l-1.46,2.56a45.86,45.86,0,0,0-4.25-2.66,17.43,17.43,0,0,0-2.11,1.74c.9.52,1.77,1.09,2.62,1.68l-1.46,2.58c-1.11-.78-2.18-1.47-3.2-2.07l-.83,1.08a1,1,0,0,0-.2.93,1.64,1.64,0,0,0,.67.78,8,8,0,0,0,3,1l-1.2,2.82a10.72,10.72,0,0,1-3.42-1.35L92.78,26a5,5,0,0,1-2-2.48,4.1,4.1,0,0,1,.9-3,26.39,26.39,0,0,1,4.51-4.92l-.82-.33,1.45-2.59A44.31,44.31,0,0,1,105.19,17.27Zm1,4.31a3.49,3.49,0,0,1,1.52,2.49,5.1,5.1,0,0,1-1,3.2l-.45.65a29.48,29.48,0,0,1-3.2,3.44l-2.2-2.22a17.7,17.7,0,0,0,3-3.09,2.35,2.35,0,0,0,.61-1.56,1.54,1.54,0,0,0-.71-1,.2.2,0,0,0-.1-.05q-2.26,4.1-4.71,8.65l-2.78-1.5q2.17-4.19,4.46-8.29a6.82,6.82,0,0,0-.95-.17l.86-3A15.64,15.64,0,0,1,106.22,21.57Z"/><path class="cls-15" d="M114.67,57.57l-.52-2.9,7.17,4,6.3-6.75.55,3.05-5.82,6.09,6.71-1.19.42,2.29L116,64.63l-.42-2.29,6.33-1.15Z"/><path class="cls-16" d="M129.82,66.5l-.12,2.87L123.44,73l6.11.27-.1,2.33-13.73-.56.15-3.64q.19-4.59,4.33-4.42a4.13,4.13,0,0,1,2.57.91,3.08,3.08,0,0,1,1.11,2.23ZM122.49,73l0-.7q.12-2.87-2.35-3t-2.49,2.75l0,.72Z"/><path class="cls-17" d="M123.67,87.53l2.63,2-.67,2.38L113.5,83l.56-2,15-1.2-.67,2.4-3.28.28ZM117,83l5.06,3.49,1.11-3.94Z"/><path class="cls-18" d="M114.28,94l6.16,7.93-.3.48-9.75-2.3,7,6.27-1.24,2-10.72-9.45.91-1.46,9.9,2-6.18-7.91L111,90l13,5.75-1.24,2Z"/><path class="cls-19" d="M111.38,113.07l-1.51,1.46-8.18-8.46-2.2,2.12-1.37-1.42,5.91-5.71,1.37,1.42-2.2,2.12Z"/><path class="cls-20" d="M89.75,120.19a7.35,7.35,0,0,1-1-5.4,6.64,6.64,0,0,1,8.38-5,7.76,7.76,0,0,1,5.23,8.78,6.7,6.7,0,0,1-8.39,5A7.29,7.29,0,0,1,89.75,120.19Zm2-1.36a5.38,5.38,0,0,0,2.9,2.4,4.08,4.08,0,0,0,5.46-3.17,5.5,5.5,0,0,0-.81-3.72A5.07,5.07,0,0,0,96.53,112a4,4,0,0,0-3.46.44,4,4,0,0,0-2,2.84A5.11,5.11,0,0,0,91.76,118.83Z"/><path class="cls-21" d="M73.85,124.51a7.35,7.35,0,0,1,.66-5.44A6.64,6.64,0,0,1,84,116.76a7.77,7.77,0,0,1,2.43,9.93A6.71,6.71,0,0,1,76.92,129,7.3,7.3,0,0,1,73.85,124.51Zm2.32-.72a5.38,5.38,0,0,0,2.07,3.14,4.08,4.08,0,0,0,6.15-1.43,5.5,5.5,0,0,0,.31-3.79,5.07,5.07,0,0,0-2-3,4,4,0,0,0-3.44-.59,4,4,0,0,0-2.77,2.12A5.11,5.11,0,0,0,76.16,123.8Z"/><path class="cls-22" d="M66.65,119.57l.06,3.58,4.23-.07,0,2-4.23.07.1,6.22-2.33,0-.22-13.74,6.83-.11,0,2Z"/><path class="cls-23" d="M53.73,119.31a3.75,3.75,0,0,0-2.33-2.4,3.91,3.91,0,0,0-3.49.37,5.44,5.44,0,0,0-2.41,2.89,5.29,5.29,0,0,0,0,3.67,3.9,3.9,0,0,0,2.42,2.52,3.86,3.86,0,0,0,3.35-.31l-1,2.66a7.15,7.15,0,0,1-3.19-.3,6.28,6.28,0,0,1-3.78-3.63,7.15,7.15,0,0,1-.09-5.39,7.45,7.45,0,0,1,3.62-4.19,6.27,6.27,0,0,1,5.29-.35,6.63,6.63,0,0,1,2.6,1.8Z"/><path class="cls-24" d="M37.63,123.87l-2-1.15,6.75-12,2,1.15Z"/><path class="cls-25" d="M31.45,101.89,32.8,103,32,115.94l6.5-7.58,1.76,1.5L31.2,120.54l-1.33-1.13.75-12.91-6.53,7.64-1.78-1.51Z"/><path class="cls-26" d="M16.66,100l-3.23.72-1.39-2,14.67-3.51,1.17,1.72-8.74,12.23-1.4-2.06,1.9-2.68Zm7.77-2.18L18.5,99.48l2.3,3.39Z"/><path class="cls-27" d="M17.15,92.76l-.32.11a8.06,8.06,0,0,1-5.56.13,5.64,5.64,0,0,1-3.4-3.7,6,6,0,0,1,.46-5.11,7.38,7.38,0,0,1,4.22-3.4,7.46,7.46,0,0,1,5.54.11,6.23,6.23,0,0,1,3.53,3.9A5.61,5.61,0,0,1,20.26,91l-1.72-1.61a3.53,3.53,0,0,0,1.15-4A3.67,3.67,0,0,0,17.22,83a6,6,0,0,0-3.91.07,5.7,5.7,0,0,0-3.07,2.29,3.71,3.71,0,0,0-.43,3.37,3.17,3.17,0,0,0,1.9,2.06,4.06,4.06,0,0,0,2.86,0L13.5,87.74l1.74-.59Z"/><path class="cls-28" d="M5.47,79.14l-.24-2.87L11,71.88l-6.09.48L4.71,70l13.69-1.14.3,3.63q.38,4.58-3.75,4.92a4.14,4.14,0,0,1-2.66-.58,3.08,3.08,0,0,1-1.38-2.08Zm6.47-7.35.06.7q.24,2.86,2.7,2.66t2.13-3l-.06-.72Z"/><path class="cls-29" d="M13.6,52.88a7.35,7.35,0,0,1,4.73,2.76,6.64,6.64,0,0,1-1.62,9.61,7.37,7.37,0,0,1-5.36,1,7.35,7.35,0,0,1-4.71-2.74,6.71,6.71,0,0,1,1.62-9.63A7.3,7.3,0,0,1,13.6,52.88Zm-.26,2.41a5.38,5.38,0,0,0-3.7.66,4.08,4.08,0,0,0-1.12,6.22A5.5,5.5,0,0,0,11.88,64a5.07,5.07,0,0,0,3.58-.61,4,4,0,0,0,1.91-2.93A4,4,0,0,0,16.51,57,5.11,5.11,0,0,0,13.34,55.3Z"/><path class="cls-30" d="M113.09,39.9a9,9,0,0,0,1.29.43c.27.07.58.14.93.2a22.57,22.57,0,0,0,6-.21,9.32,9.32,0,0,0,1.91-.61l.91-.44c-.25.15-.51.28-.75.4a7.09,7.09,0,0,1-2,.82,10.77,10.77,0,0,1-2.13.32c-1.38,0-2.92,0-4.39,0a6.55,6.55,0,0,1-1-.35A6.44,6.44,0,0,1,113.09,39.9Z"/><path class="cls-30" d="M115.45,43.67c3.3,1.32,7.08-1,8.52-4a4.9,4.9,0,0,1,.51-.87,1.55,1.55,0,0,1-.53.4,3.46,3.46,0,0,1-2,0c-1.76-.55-3.4-1.89-5.35-1.38a.6.6,0,0,0-.1-.41c1.94-1,3.58,1,5.45,1.34a3.7,3.7,0,0,0,2.11-.15,3.39,3.39,0,0,0,1.14-.69c-.26.52-.46,1.08-.71,1.62a6,6,0,0,1-.42.79c-1.73,3-5.72,5.78-9.18,3.74C115.07,43.95,115.26,43.81,115.45,43.67Z"/><path class="cls-31" d="M114.71,49.65s-1.84-3.79-1.21-5,6.16-2.56.73-11.53l-.11-.18a1.57,1.57,0,0,1-.25-.95c-.23.2-.45.36-.65.58l-.13.12-.13.12-.17.16c-1.4,1.29-4,4-4,6.57a4,4,0,0,0,.06.71,9.21,9.21,0,0,0,2.92,5l.37.5C112.86,46.83,113.72,48.06,114.71,49.65Z"/><path class="cls-4" d="M113.68,32.57a.92.92,0,0,1-.07.15l-.07.14-.06.15a15.18,15.18,0,0,0-1.05,4.15,25.42,25.42,0,0,0,.55,8.5s-2.74-7.93.38-12.63l.1-.15.11-.15Z"/></g></svg>