<?xml version="1.0" encoding="utf-8"?>
<!-- Generator: Adobe Illustrator 20.1.0, SVG Export Plug-In . SVG Version: 6.00 Build 0)  -->
<svg version="1.1" id="Layer_1" xmlns="http://www.w3.org/2000/svg" xmlns:xlink="http://www.w3.org/1999/xlink" x="0px" y="0px"
	 viewBox="0 0 220 135" style="enable-background:new 0 0 220 135;" xml:space="preserve">
<style type="text/css">
	.st0{fill:#DB4565;}
</style>
<title>client7</title>
<g id="Layer_2">
	<path class="st0" d="M129.9,25.1c0-1.3-0.4-2.5-1.1-3.6c-0.3-0.4-0.7-0.8-1.1-1.2c-0.7-0.5-1.5-0.9-2.4-1c-0.3-0.1-0.5-0.1-0.8-0.1
		c-0.2,0-0.4,0-0.6,0c-0.2,0-0.4,0.1-0.6,0.2c-1.4,0.7-2.3,2.1-2.3,3.6c-0.2,2,1.3,3.8,3.4,4h0.1c-0.9,2.1-2.1,4.1-3.5,6l-0.9,1.2
		c-1.5,1.9-3.2,3.7-4.9,5.5c-0.8,0.8-1.5,1.7-2.1,2.7c0.2-0.6,0.4-1.1,0.5-1.7c0.1-0.5,0.1-0.9,0.2-1.4c0-0.8,0.2-1.7,0.4-2.5
		c0.3-0.6,0.7-1.2,1.2-1.6c0.5-0.5,1.2-1.2,0.6-2c-0.3-0.3-0.7-0.5-1.1-0.4c-0.8,0.1-1.6,1.2-2.2,2.9c-0.4,1.3-0.7,2.6-0.8,4
		l-0.1,0.7c-0.1,0.8-0.4,1.5-0.7,2.3c-0.1,0-0.1,0-0.2,0h-0.1c-0.1,0-0.1,0-0.2,0c-0.3-0.7-0.5-1.5-0.7-2.3l-0.1-0.7
		c-0.1-1.4-0.4-2.7-0.8-4c-0.6-1.7-1.3-2.7-2.2-2.9c-0.4-0.1-0.8,0.1-1.1,0.4c-0.6,0.7,0.1,1.5,0.6,2c0.5,0.4,0.9,1,1.2,1.6
		c0.3,0.8,0.4,1.6,0.4,2.5c0,0.5,0.1,0.9,0.2,1.4c0.1,0.6,0.3,1.1,0.5,1.7c-0.6-1-1.3-1.9-2.1-2.7c-1.7-1.7-3.4-3.6-4.9-5.5
		l-0.9-1.1c-1.4-1.8-2.6-3.9-3.5-6h0.1c2-0.2,3.5-2,3.4-4c0-1.5-0.9-2.9-2.3-3.6c-0.2-0.1-0.4-0.2-0.6-0.2c-0.2,0-0.4,0-0.6,0
		c-0.3,0-0.5,0-0.8,0.1c-0.9,0.1-1.7,0.5-2.4,1c-0.4,0.3-0.8,0.7-1.1,1.2c-0.7,1.1-1.1,2.3-1.2,3.6c0.9,7.6-4.5,10.6-2,16.3
		c0.2,0.4,0.3,0.7,0.5,1.1c0.7,1.3,4.7,3.3,5,3.5l0,0c0,0-3.1,0.1-3.3,2c-0.3,2.3,2,7.1,4,9.1c1.1,1.1,2.7,2.1,3.2,3
		c0.2,0.2,0.2,0.5,0.2,0.8c-0.3,0.8,0.9,3.1,3.4,2.1c3.6-1.5,4.3-5.5,5.2-8.8c0.2-1.2,0.6-2.3,1.2-3.4c0,1.7,0.4,4.7,1.6,4.7h0.3
		c1.2,0,1.6-3,1.6-4.7c0.6,1.1,1,2.2,1.2,3.4c0.8,3.3,1.6,7.3,5.2,8.8c2.5,1,3.8-1.3,3.4-2.1c-0.1-0.3,0-0.5,0.2-0.8
		c0.5-0.8,2.1-1.8,3.2-3c2-2,4.2-6.8,4-9.1c-0.2-1.9-3.3-2-3.3-2l0,0c0.3-0.1,4.2-2.2,5-3.5c0.2-0.4,0.4-0.7,0.5-1.1
		C134.4,35.7,129,32.8,129.9,25.1z M110.5,48.7c0,0.3-0.1,0.7-0.3,1l0,0l-1.4,0.5l-0.6,0.2l-0.3,0.2h-0.1c-0.2,0.1-0.3,0.1-0.4,0.1
		l0,0l0,0c-0.1,0-0.1-0.1-0.1-0.2c0-0.2,0.1-0.4,0.8-1.6c-1.3,0.8-2.4,1.8-3.5,2.8c-0.5,0.5-2.9,3-2.9,4.9c0,0.4,0.1,0.7,0.3,1
		c0.1,0.1,0.2,0.2,0.4,0.1c0.2,0,0.3-0.1,0.3-0.3c0.1-0.2-0.1-0.4-0.3-0.7c-0.1-0.1-0.1-0.3,0-0.4c0.4-0.4,0.9-0.7,1.5-0.7
		c0.1,0,0.2,0,0.3,0c0.5,0.1,0.8,0.5,0.8,1c0.1,0.8-0.1,1.6-0.7,2.2c-0.5,0.5-1.2,0.8-1.9,0.8c-0.1,0-0.2,0-0.3,0
		c-0.7-0.1-1.2-0.6-1.4-1.3c-0.1-0.3-0.1-0.6-0.1-0.9c0-1.8,1.2-4.3,3.1-6.3c1-1,2.1-1.9,3.3-2.7c-1.3,0.2-2.5,0.4-3.8,0.8
		c-2.5,0.8-5.4,2.3-5.4,3.8c0,0,0,0.1,0,0.2l0,0c0,0.1,0.1,0.2,0.2,0.2l0,0c0.1,0,0.1,0,0.2,0c0.1,0,0.2,0,0.3-0.1
		c0.2-0.2,0.2-0.5,0.1-0.7c0-0.2,0-0.3,0.2-0.4c0.3-0.1,0.5-0.2,0.8-0.2c0.4,0,0.8,0.1,1.1,0.4c0.3,0.3,0.4,0.8,0.2,1.2
		c-0.3,0.8-1.1,1.4-1.9,1.6c-0.3,0.1-0.5,0.1-0.8,0.1c-0.5,0-1.1-0.1-1.5-0.5c-0.4-0.3-0.6-0.8-0.6-1.3c0-0.1,0-0.2,0-0.3l0,0
		c0.3-1.8,3.1-3.9,6.5-5.1l0,0l3.4-0.8h0.2l-0.6-0.2c-1.2-0.4-2.4-0.6-3.7-0.7h-0.4c-2.3,0-5.2,0.5-5.6,1.9c0,0.1,0,0.1,0.1,0.2
		c0.1,0.1,0.3,0.1,0.4,0.1c0.2-0.1,0.3-0.3,0.3-0.6c0-0.1,0.1-0.3,0.3-0.3h0.1c0.6,0,1.1,0.3,1.5,0.8c0.2,0.4,0.1,0.9-0.3,1.2
		c-0.5,0.5-1.2,0.9-2,0.8h-0.3c-0.7-0.1-1.3-0.4-1.7-1c-0.3-0.5-0.3-1.1,0-1.5c0.8-1.5,3.9-2.5,7.4-2.6h0.8
		c-0.8-0.2-1.7-0.3-2.4-0.5l-4.6-1l-0.2-0.1l-0.9-0.3l-0.3-0.1l0,0c0,0-0.7-0.4-0.8-0.4l-0.2-0.1l-0.7-0.5l-0.2-0.2l-0.5-0.7
		l-0.2-0.3l-0.4-0.8l-0.1-0.3L91,38.9c-0.1-0.8,0.1-1.7,0.5-2.4l0,0l0,0l0.1,0.1l0,0l-0.1-0.1c0.8-1.1,2.1-1.8,3.4-1.8
		c0.5,0,0.9,0.1,1.4,0.2c1.6,0.6,2.8,2.2,2.7,3.5c0,0.6-0.4,1.6-2.4,1.9l0,0c-0.1,0-0.2-0.1-0.3-0.2c-0.1-0.1,0-0.3,0.1-0.4
		c0.5-0.2,0.7-0.8,0.6-1.3c-0.2-0.7-0.8-1.2-1.6-1.4c-0.1,0-0.2,0-0.3,0c-0.7,0-1.3,0.4-1.7,0.9l0,0l-0.2,0.3
		c-0.2,0.3-0.3,0.6-0.3,1c0,0.5,0.2,0.9,0.4,1.3l0.5,0.6l0.2,0.2l0.4,0.3l0.3,0.2l0,0l0.4,0.2l0.4,0.2l0.6,0.3l0.4,0.1l0.7,0.2
		l0.3,0.1l1.1,0.3l2.8,0.7c3.4,0.8,6.9,1.6,8.9,3.4l0,0c0.1,0.1,0.1,0.2,0.1,0.3l0,0l0,0L110.5,48.7z M130.5,38.9L130.5,38.9
		l-0.3,1.3l-0.1,0.2c-0.1,0.1-0.4,0.8-0.4,0.8l0,0l-0.1,0.2l-0.5,0.7l0,0l-0.2,0.2c-0.1,0.1-0.6,0.5-0.6,0.5l0,0L128,43
		c-0.1,0.1-0.8,0.4-0.8,0.4l0,0l-0.3,0.1l-0.9,0.3l-0.2,0.1l-4.5,1c-0.7,0.1-1.6,0.3-2.4,0.5h0.8c3.5,0,6.6,1.1,7.4,2.6
		c0.3,0.5,0.3,1.1,0,1.5c-0.4,0.6-1,0.9-1.7,1H125c-0.8,0-1.5-0.3-2-0.8c-0.3-0.3-0.4-0.8-0.3-1.2c0.3-0.5,0.9-0.8,1.5-0.8h0.2
		c0.1,0,0.3,0.1,0.3,0.3c0,0.3,0.2,0.5,0.3,0.6h0.1c0.1,0,0.2,0,0.3-0.1c0.1,0,0.1-0.1,0.1-0.2c-0.3-1.4-3.2-1.9-5.6-1.9h-0.4
		c-1.2,0.1-2.5,0.3-3.7,0.7l-0.6,0.2h0.2L119,48c3.4,1.2,6.2,3.3,6.5,5.1l0,0c0,0.1,0,0.2,0,0.3c0,0.5-0.2,1-0.6,1.3
		c-0.4,0.3-1,0.5-1.5,0.5c-0.3,0-0.5,0-0.8-0.1c-0.8-0.2-1.5-0.8-1.8-1.6c-0.2-0.4-0.1-0.9,0.2-1.2c0.3-0.3,0.7-0.4,1.1-0.4
		c0.3,0,0.6,0.1,0.8,0.2c0.1,0.1,0.2,0.2,0.2,0.4c-0.1,0.2-0.1,0.5,0.1,0.7c0.1,0.1,0.2,0.1,0.3,0.1c0.1,0,0.1,0,0.2,0l0,0
		c0.1,0,0.2-0.1,0.2-0.2l0,0c0-0.1,0-0.1,0-0.2c0-1.6-2.9-3-5.4-3.8c-1.2-0.4-2.5-0.6-3.8-0.8c1.2,0.8,2.3,1.7,3.3,2.7
		c1.9,2.1,3.1,4.5,3.1,6.3c0,0.3,0,0.6-0.1,0.9c-0.2,0.7-0.7,1.2-1.4,1.3c-0.1,0-0.2,0-0.4,0c-0.7,0-1.4-0.3-1.9-0.8
		c-0.6-0.6-0.9-1.4-0.7-2.2c0-0.5,0.4-0.9,0.8-1c0.1,0,0.2,0,0.3,0c0.6,0,1.1,0.3,1.5,0.7c0.1,0.1,0.1,0.3,0,0.4
		c-0.3,0.3-0.4,0.5-0.3,0.7c0.1,0.2,0.2,0.3,0.4,0.3c0.1,0,0.3,0,0.4-0.1c0.2-0.3,0.3-0.6,0.3-1c0-1.8-2.4-4.4-2.9-4.9
		c-1.1-1-2.3-2-3.5-2.8c0.7,1.2,0.8,1.4,0.8,1.6c0,0.1,0,0.1-0.1,0.2l0,0l0,0c-0.1,0-0.2,0-0.4-0.1h-0.1l0,0l-0.3-0.1l-0.6-0.2l0,0
		l-1.4-0.5l0,0c-0.2-0.3-0.3-0.7-0.3-1l0,0l-0.1-0.9l0,0l0,0c0-0.1,0-0.2,0.1-0.3l0,0c2-1.8,5.6-2.6,8.9-3.4l0,0l2.7-0.7l0.2-0.1
		l1.2-0.4l0.7-0.2l0.4-0.1l0.6-0.3l0.4-0.2l0.4-0.2l0.4-0.2l0.4-0.3l0.2-0.2l0.5-0.6c0.3-0.4,0.4-0.8,0.4-1.3c0-0.4-0.1-0.7-0.3-1
		l-0.2-0.3l0,0c-0.4-0.6-1-0.9-1.7-0.9c-0.1,0-0.2,0-0.3,0c-0.7,0.1-1.3,0.7-1.6,1.4c-0.1,0.5,0.2,1,0.6,1.3
		c0.1,0.1,0.2,0.2,0.1,0.4c-0.1,0.1-0.2,0.2-0.3,0.2c-2-0.3-2.4-1.3-2.4-1.9c-0.2-1.3,1.1-2.9,2.7-3.5c0.4-0.2,0.9-0.2,1.4-0.2
		c1.4,0,2.7,0.7,3.4,1.8l-0.1,0.1l0,0l0.1-0.1l0,0l0,0C130.5,37.1,130.6,38,130.5,38.9L130.5,38.9z"/>
	<path class="st0" d="M60,111.7l1.2-6.2h0.1l3.3,5.1l3.3-5.1h0.2l1.2,6.2h-0.8l-0.8-4.4l-2.9,4.4h-0.2l-2.9-4.4l-0.8,4.4H60z"/>
	<path class="st0" d="M76,105.5l3.8,6.2H79l-1.3-2h-3.6l-1.3,2h-0.9l3.9-6.2H76z M75.9,106.8l-1.4,2.2h2.8L75.9,106.8z"/>
	<path class="st0" d="M82,110.5l0.7-0.3c0.4,0.6,1,1,1.7,1c0.3,0,0.5-0.1,0.8-0.2c0.2-0.1,0.4-0.2,0.6-0.4c0.1-0.1,0.2-0.3,0.2-0.5
		c0-0.2-0.1-0.5-0.3-0.6c-0.4-0.4-0.9-0.7-1.4-1c-0.5-0.2-0.9-0.5-1.3-0.8c-0.3-0.2-0.4-0.6-0.4-0.9c0-0.3,0.1-0.5,0.3-0.7
		c0.2-0.2,0.4-0.4,0.7-0.5c0.3-0.1,0.7-0.2,1-0.2c0.4,0,0.7,0.1,1.1,0.2c0.4,0.2,0.8,0.5,1.1,0.8l-0.7,0.4c-0.2-0.2-0.5-0.4-0.8-0.6
		c-0.2-0.1-0.5-0.1-0.7-0.1c-0.3,0-0.6,0.1-0.8,0.2c-0.2,0.1-0.3,0.3-0.3,0.6c0,0.1,0,0.3,0.1,0.4c0.1,0.2,0.3,0.3,0.4,0.4
		c0.1,0.1,0.5,0.3,1.1,0.6c0.5,0.3,1,0.6,1.5,1.1c0.5,0.5,0.5,1.3,0,1.9c-0.1,0.1-0.2,0.2-0.3,0.2c-0.5,0.3-1.1,0.5-1.7,0.5
		c-0.5,0-0.9-0.1-1.3-0.3C82.7,111.3,82.3,110.9,82,110.5z"/>
	<path class="st0" d="M90.3,105.5h0.8v2.3l3.3-2.3h1.1l-3.9,2.8l4.3,3.4h-1.1l-3.6-2.9v2.9h-0.8L90.3,105.5z"/>
	<path class="st0" d="M111.6,106.5l-0.7,0.4c-0.9-0.7-2-1-3.1-1c-0.6,0-1.3,0.1-1.8,0.3c-0.5,0.2-1,0.6-1.4,1
		c-0.3,0.4-0.5,0.8-0.5,1.3c0,0.5,0.2,1,0.5,1.3c0.4,0.4,0.8,0.8,1.4,1c0.6,0.2,1.3,0.4,1.9,0.3c0.8,0,1.5-0.2,2.2-0.5
		c0.5-0.3,0.9-0.8,1-1.4h-2.6v-0.6h3.6c0,0.9-0.4,1.8-1.1,2.3c-0.9,0.6-1.9,0.9-3,0.8c-1.3,0.1-2.6-0.3-3.6-1.2
		c-1.1-0.9-1.4-2.5-0.5-3.6c0,0,0-0.1,0.1-0.1c0.4-0.5,1-0.9,1.6-1.2c0.7-0.3,1.5-0.4,2.3-0.4c0.7,0,1.4,0.1,2,0.3
		C110.4,105.9,111,106.2,111.6,106.5z"/>
	<path class="st0" d="M118.7,105.5l3.8,6.2h-0.9l-1.3-2h-3.6l-1.3,2h-0.9l3.9-6.2H118.7z M118.6,106.8l-1.4,2.2h2.8L118.6,106.8z"/>
	<path class="st0" d="M125.5,105.5h0.8v5.6h3.2v0.6h-4L125.5,105.5z"/>
	<path class="st0" d="M132.5,105.5h0.8v5.6h3.2v0.6h-4L132.5,105.5z"/>
	<path class="st0" d="M139.5,105.5h4.7v0.6h-3.9v1.9h3.9v0.6h-3.9v2.4h3.9v0.6h-4.7L139.5,105.5z"/>
	<path class="st0" d="M147.4,105.5h1.6c0.6,0,1.2,0,1.9,0.1c0.4,0.1,0.8,0.3,1.2,0.5c0.3,0.3,0.5,0.6,0.5,1c0,0.3-0.1,0.6-0.3,0.9
		c-0.2,0.3-0.6,0.5-0.9,0.6c-0.5,0.1-1.1,0.2-1.6,0.2l3,2.9h-1l-3-2.9h-0.5v2.9h-0.8L147.4,105.5z M148.3,106.1v2.1h1.4
		c0.4,0,0.8,0,1.2-0.1c0.2-0.1,0.5-0.2,0.6-0.4c0.1-0.2,0.2-0.4,0.2-0.6c0-0.2-0.1-0.4-0.2-0.6c-0.2-0.2-0.4-0.3-0.6-0.4
		c-0.4-0.1-0.8-0.1-1.2-0.1L148.3,106.1z"/>
	<path class="st0" d="M155.4,105.5h0.9l2.1,2.6l2.1-2.6h0.9l-2.6,3.2v3H158v-3L155.4,105.5z"/>
	<path class="st0" d="M31.8,90.9c0,0.2-0.1,0.3-0.2,0.3c-0.6,0-1.4,0-2.2-0.1s-1.3-0.1-1.8-0.1s-1.3,0-2.1,0.1s-1.6,0.1-2.3,0.1
		c-0.1,0-0.2-0.1-0.2-0.3s0-0.3,0.2-0.3c0.6,0,1.2-0.1,1.8-0.2c0.4-0.1,0.5-0.4,0.5-0.6c0-0.3-0.1-0.6-0.3-0.9l-1.6-3.5H18l-1.6,3.2
		c-0.2,0.3-0.3,0.7-0.3,1c0,0.6,0.7,0.9,2.3,1c0.1,0,0.2,0.1,0.2,0.3s-0.1,0.3-0.2,0.3c-0.6,0-1.2,0-1.8-0.1S15.3,91,14.7,91
		s-0.9,0-1.5,0.1s-1.2,0.1-1.6,0.1c-0.1,0-0.2-0.1-0.2-0.3s0.1-0.3,0.3-0.3c0.6,0,1.3-0.2,1.8-0.5c0.6-0.4,1.1-1,1.4-1.6l6.5-12
		c0.1-0.1,0.2-0.2,0.4-0.2s0.4,0,0.4,0.2l5.7,12c0.3,0.6,0.7,1.2,1.3,1.5c0.7,0.4,1.4,0.6,2.2,0.6C31.7,90.6,31.8,90.7,31.8,90.9z
		 M23.4,84.7l-2.5-5.3l-2.6,5.3H23.4z"/>
	<path class="st0" d="M55.7,77c0,0.1-0.1,0.3-0.2,0.3c0,0,0,0,0,0c-0.8,0-1.6,0.2-2.4,0.5c-0.4,0.3-0.7,0.7-0.7,1.3l-0.3,12.3
		c0,0.1-0.1,0.2-0.3,0.2c-0.2,0-0.3-0.1-0.4-0.2L37,79.2l-0.2,9.7c0,0.1,0,0.1,0,0.2c0,0.5,0.2,0.9,0.7,1.1c0.8,0.3,1.6,0.5,2.4,0.5
		c0.1,0,0.2,0.1,0.2,0.3c0,0,0,0,0,0c0,0.2-0.1,0.3-0.2,0.3c-0.5,0-1.2,0-2-0.1s-1.4-0.1-1.8-0.1s-1.1,0-1.9,0.1s-1.4,0.1-1.8,0.1
		c-0.2,0-0.2-0.1-0.2-0.3c0-0.1,0.1-0.3,0.2-0.3c0,0,0,0,0,0c0.8,0,1.6-0.2,2.4-0.5c0.5-0.3,0.7-0.8,0.7-1.3L36,79v-0.1
		c0-0.5-0.2-1-0.7-1.2c-0.8-0.3-1.6-0.5-2.4-0.5c-0.1,0-0.2-0.1-0.2-0.3s0.1-0.3,0.2-0.3c0.3,0,0.8,0,1.4,0.1c0.4,0,0.8,0.1,1.2,0.1
		c0.4,0,0.8,0,1.2-0.1c0.5,0,0.9-0.1,1.2-0.1l13.4,11.3V79c0-0.5-0.2-1-0.7-1.2c-0.8-0.3-1.6-0.5-2.5-0.5c-0.2,0-0.2-0.1-0.2-0.3
		s0.1-0.3,0.2-0.3c0.5,0,1.2,0,2,0.1s1.4,0.1,1.8,0.1s1.1,0,1.9-0.1s1.3-0.1,1.8-0.1C55.6,76.7,55.7,76.8,55.7,77z"/>
	<path class="st0" d="M79.6,77c0,0.2-0.1,0.3-0.2,0.3c-0.8,0-1.6,0.2-2.4,0.5c-0.4,0.3-0.7,0.7-0.7,1.3L76,91.3
		c0,0.1-0.1,0.2-0.3,0.2c-0.2,0-0.3-0.1-0.4-0.2L60.9,79.2l-0.2,9.7c0,0.1,0,0.1,0,0.2c0,0.5,0.2,0.9,0.7,1.1
		c0.8,0.3,1.6,0.5,2.4,0.5c0.1,0,0.2,0.1,0.2,0.3c0,0,0,0,0,0c0,0.2-0.1,0.3-0.2,0.3c-0.5,0-1.1,0-2-0.1s-1.4-0.1-1.8-0.1
		s-1.1,0-1.9,0.1s-1.4,0.1-1.8,0.1c-0.2,0-0.2-0.1-0.2-0.3c0-0.1,0.1-0.3,0.2-0.3c0,0,0,0,0,0c0.8,0,1.6-0.2,2.4-0.5
		c0.5-0.3,0.7-0.8,0.7-1.3l0.5-9.9v-0.1c0-0.5-0.2-1-0.7-1.2c-0.8-0.3-1.6-0.5-2.4-0.5c-0.1,0-0.2-0.1-0.2-0.3s0.1-0.3,0.2-0.3
		c0.3,0,0.8,0,1.4,0.1c0.4,0,0.8,0.1,1.2,0.1c0.4,0,0.8,0,1.2-0.1c0.5,0,0.8-0.1,1.2-0.1l13.4,11.3V79c0-0.5-0.2-1-0.7-1.2
		c-0.8-0.3-1.6-0.5-2.5-0.5c-0.1,0-0.2-0.1-0.2-0.3s0.1-0.3,0.2-0.3c0.5,0,1.2,0,2,0.1s1.4,0.1,1.8,0.1s1.1,0,1.9-0.1
		s1.3-0.1,1.8-0.1C79.5,76.7,79.6,76.8,79.6,77z"/>
	<path class="st0" d="M90.3,90.9c0,0.2-0.1,0.3-0.2,0.3c-0.6,0-1.4,0-2.2-0.1s-1.5-0.1-2.1-0.1s-1.3,0-2.1,0.1s-1.6,0.1-2.2,0.1
		c-0.1,0-0.2-0.1-0.2-0.3c0-0.1,0.1-0.3,0.2-0.3c0,0,0,0,0,0c0.8,0,1.6-0.2,2.3-0.5c0.4-0.3,0.7-0.8,0.6-1.3V79
		c0.1-0.7-0.3-1.3-1-1.5c0,0-0.1,0-0.1,0c-0.6-0.1-1.2-0.2-1.8-0.3c-0.1,0-0.2-0.1-0.2-0.3s0.1-0.3,0.2-0.3c0.6,0,1.4,0,2.2,0.1
		s1.5,0.1,2.1,0.1s1.3,0,2.1-0.1s1.6-0.1,2.2-0.1c0.2,0,0.2,0.1,0.2,0.3s-0.1,0.3-0.2,0.3c-0.6,0-1.2,0.1-1.8,0.3
		c-0.3,0.1-0.6,0.2-0.8,0.5c-0.2,0.3-0.3,0.7-0.2,1v9.8c0,0.3,0.1,0.7,0.2,1c0.2,0.2,0.5,0.4,0.8,0.5c0.6,0.1,1.2,0.2,1.8,0.3
		c0.1,0,0.3,0.1,0.3,0.2C90.3,90.8,90.3,90.9,90.3,90.9z"/>
	<path class="st0" d="M109.7,87.8c-0.7,1.1-1.3,2.2-1.8,3.4c-3.5-0.1-6-0.1-7.5-0.1s-4,0-7.4,0.1c-0.1,0-0.2-0.1-0.2-0.3
		c0-0.1,0.1-0.3,0.2-0.3c0,0,0,0,0,0c0.6,0,1.2-0.1,1.8-0.3c0.3-0.1,0.6-0.2,0.9-0.5c0.2-0.3,0.3-0.7,0.2-1V79c0-0.3-0.1-0.7-0.2-1
		c-0.2-0.2-0.5-0.4-0.8-0.5c-0.6-0.1-1.2-0.2-1.8-0.3c-0.1,0-0.2-0.1-0.2-0.3s0.1-0.3,0.2-0.3c2.3,0.1,4.7,0.2,7.2,0.2
		c2.5,0,4.9,0,7.2-0.2c0.2,1.1,0.5,2.2,0.9,3.2c0,0.1-0.2,0.2-0.5,0.2c-0.2,0-0.3-0.1-0.3-0.2c-0.7-1.6-2.1-2.4-4.4-2.4h-2.8
		c-1.1,0-1.6,0.4-1.6,1.3v4.6h3.5c0.7,0.1,1.3-0.1,1.9-0.5c0.4-0.5,0.6-1.1,0.7-1.7c0-0.1,0.1-0.2,0.4-0.2s0.4,0.1,0.4,0.2
		c0,0.4,0,0.8-0.1,1.3c-0.1,0.4-0.1,0.8-0.1,1.2c0,0.4,0,0.8,0.1,1.3c0.1,0.5,0.1,1,0.1,1.3c0,0.1-0.1,0.2-0.4,0.2s-0.4-0.1-0.4-0.2
		c-0.1-0.7-0.3-1.3-0.7-1.8c-0.5-0.4-1.2-0.6-1.9-0.5h-3.5v5.1c0,0.8,0.6,1.2,1.6,1.2h3c1.1,0,2.3-0.3,3.3-0.8c1-0.4,1.8-1.1,2.4-2
		c0.1-0.1,0.2-0.1,0.2-0.1c0.1,0,0.2,0,0.3,0.1C109.6,87.6,109.7,87.7,109.7,87.8z"/>
	<path class="st0" d="M115,78.5c0,0.6-0.2,1.3-0.5,1.8c-0.4,0.6-0.9,1.1-1.6,1.5c-0.4,0.3-0.9,0.5-1.4,0.6c-0.1,0-0.2,0-0.3-0.1
		c-0.1-0.1-0.1-0.2-0.1-0.3v-0.1c1.5-0.7,2.3-1.6,2.3-2.6c0-0.3-0.1-0.5-0.2-0.5H113c-0.1,0-0.2,0.1-0.3,0.1c-0.4,0-0.8-0.1-1.1-0.4
		c-0.3-0.2-0.4-0.5-0.4-0.9c0-0.3,0.2-0.7,0.5-0.8c0.3-0.2,0.7-0.4,1.1-0.3c0.6,0,1.1,0.2,1.5,0.6C114.8,77.4,115,77.9,115,78.5z"/>
	<path class="st0" d="M128.9,87c0,1.3-0.6,2.5-1.7,3.3c-1.3,0.9-2.9,1.3-4.4,1.2c-1,0-2-0.1-3-0.3c-0.8-0.2-1.7-0.3-2.6-0.3
		c-0.1-1.2-0.2-2.4-0.3-3.6c0-0.1,0.1-0.2,0.4-0.2c0.1,0,0.3,0,0.4,0.2c0.3,1.1,1,2.1,1.9,2.8c1,0.6,2.1,0.8,3.3,0.8
		c0.9,0.1,1.8-0.2,2.6-0.7c0.6-0.5,0.9-1.2,0.9-2c0-0.6-0.3-1.2-0.8-1.6c-1.1-0.8-2.2-1.4-3.4-1.9c-1.4-0.5-2.8-1.3-3.9-2.2
		c-0.6-0.5-0.9-1.2-0.9-2c0-1.2,0.7-2.3,1.7-2.9c1.3-0.8,2.8-1.2,4.3-1.2c0.8,0,1.5,0.1,2.2,0.2c0.7,0.1,1.4,0.2,2.1,0.2
		c0.1,1.1,0.2,2.2,0.4,3.2c0,0.1-0.1,0.2-0.4,0.2s-0.4-0.1-0.4-0.2c-0.2-0.9-0.7-1.7-1.4-2.3c-0.8-0.5-1.7-0.7-2.6-0.7
		c-0.9,0-1.8,0.2-2.5,0.7c-0.6,0.4-1,1.1-0.9,1.8c0,0.6,0.3,1.1,0.8,1.4c1,0.7,2.2,1.3,3.4,1.8c1.4,0.5,2.8,1.3,4,2.2
		C128.5,85.5,128.8,86.2,128.9,87z"/>
	<path class="st0" d="M168,76.9c0,0.1,0,0.2-0.1,0.2c-0.1,0.1-0.1,0.1-0.2,0.1c-0.6,0-1.2,0.2-1.7,0.5c-0.6,0.4-1,1-1.4,1.6l-7.1,12
		c0,0.1-0.2,0.2-0.4,0.2c-0.1,0-0.3-0.1-0.4-0.2l-4-6.2l-4.6,6.2c-0.1,0.1-0.2,0.2-0.4,0.2c-0.2,0-0.3,0-0.4-0.2l-7-12
		c-0.3-0.6-0.8-1.2-1.4-1.6c-0.6-0.3-1.3-0.5-2-0.6c-0.1,0-0.2,0-0.2-0.1c-0.1,0-0.1-0.1-0.1-0.2c0-0.2,0.1-0.3,0.2-0.3
		c0.6,0,1.3,0,1.9,0.1c0.6,0.1,1.2,0.1,1.8,0.1c0.6,0,1.2,0,2-0.1s1.5-0.1,2.1-0.1c0.1,0,0.2,0.1,0.2,0.3s0,0.3-0.1,0.3
		c-0.5,0-1,0.1-1.5,0.4c-0.3,0.1-0.5,0.5-0.6,0.8c0,0.2,0.1,0.4,0.2,0.6l5.7,9.8l3.3-4.7l-3-4.8c-0.4-0.6-0.8-1.2-1.3-1.7
		c-0.5-0.3-1-0.4-1.6-0.5c-0.1,0-0.1,0-0.2-0.1c0,0,0-0.1,0-0.1c0-0.2,0.1-0.3,0.2-0.3c0.6,0,1.2,0,1.7,0.1c0.5,0.1,1.1,0.1,1.6,0.1
		c0.6,0,1.2,0,1.8-0.1c0.6,0,1.3-0.1,1.9-0.1c0.1,0,0.2,0.1,0.2,0.3s-0.1,0.3-0.1,0.3c-1.2,0.1-1.9,0.3-1.9,0.8
		c0.1,0.4,0.2,0.7,0.4,1l2,3.1l2-2.8c0.2-0.3,0.4-0.6,0.4-1c0-0.7-0.6-1-1.9-1c-0.1,0-0.2-0.1-0.2-0.3c0-0.1,0.1-0.3,0.3-0.3
		c0.4,0,1,0,1.6,0.1c0.5,0.1,1,0.1,1.5,0.1c0.3,0,0.7,0,1.3-0.1c0.7-0.1,1.3-0.1,1.8-0.1c0.1,0,0.1,0.1,0.1,0.3s-0.1,0.3-0.3,0.3
		c-0.6,0-1.2,0.2-1.8,0.5c-0.7,0.4-1.2,1-1.6,1.7l-2.7,3.7l3.6,5.5l5.4-9.3c0.2-0.3,0.3-0.6,0.3-0.9c0-0.7-0.6-1.1-1.9-1.1
		c-0.1,0-0.2-0.1-0.2-0.3s0.1-0.3,0.3-0.3c0.5,0,1,0,1.6,0.1c0.5,0.1,1,0.1,1.4,0.1c0.5,0,0.9,0,1.4-0.1c0.6,0,1.1-0.1,1.5-0.1
		C168,76.7,168,76.8,168,76.9z"/>
	<path class="st0" d="M188.4,90.9c0,0.2-0.1,0.3-0.2,0.3c-0.6,0-1.4,0-2.2-0.1s-1.3-0.1-1.8-0.1s-1.3,0-2.1,0.1s-1.6,0.1-2.3,0.1
		c-0.1,0-0.2-0.1-0.2-0.3s0.1-0.3,0.2-0.3c0.6,0,1.2-0.1,1.8-0.3c0.4-0.1,0.5-0.4,0.5-0.6c0-0.3-0.1-0.6-0.3-0.9l-1.6-3.5h-5.7
		l-1.6,3.2c-0.2,0.3-0.3,0.6-0.3,1c0,0.6,0.8,0.9,2.3,1c0.1,0,0.2,0.1,0.2,0.3s-0.1,0.3-0.2,0.3c-0.6,0-1.2,0-1.9-0.1
		s-1.2-0.1-1.7-0.1s-0.9,0-1.5,0.1s-1.2,0.1-1.6,0.1c-0.1,0-0.2-0.1-0.2-0.3s0.1-0.3,0.3-0.3c0.6,0,1.3-0.2,1.8-0.5
		c0.6-0.4,1.1-1,1.4-1.6l6.5-12c0.1-0.1,0.2-0.2,0.4-0.2s0.4,0,0.4,0.2l5.8,12c0.3,0.6,0.7,1.1,1.3,1.5c0.7,0.4,1.5,0.6,2.2,0.6
		C188.3,90.6,188.4,90.7,188.4,90.9z M180,84.7l-2.5-5.3l-2.6,5.3L180,84.7z"/>
	<path class="st0" d="M210.1,77c0,0.1,0,0.1-0.1,0.2c-0.1,0.1-0.1,0.1-0.2,0.1c-0.7,0-1.4,0.2-2.1,0.4c-0.6,0.4-1.2,0.8-1.6,1.4
		l-5.2,5.6v4.2c0,0.3,0,0.7,0.1,1c0.2,0.3,0.4,0.4,0.7,0.5c0.6,0.1,1.2,0.2,1.8,0.3c0.1,0,0.2,0.1,0.2,0.3c0,0,0,0,0,0
		c0,0.2-0.1,0.3-0.2,0.3c-0.6,0-1.3,0-2.1-0.1s-1.4-0.1-2-0.1s-1.2,0-2.1,0.1s-1.6,0.1-2.2,0.1c-0.1,0-0.2-0.1-0.2-0.3
		c0-0.1,0.1-0.3,0.2-0.3c0,0,0,0,0,0c0.8,0,1.6-0.2,2.3-0.5c0.4-0.3,0.7-0.8,0.6-1.3v-4.2l-4.8-5.7c-0.5-0.6-1.1-1-1.7-1.4
		c-0.6-0.2-1.3-0.4-2-0.4c-0.2,0-0.2-0.1-0.2-0.3s0.1-0.3,0.2-0.3c0.4,0,1,0,1.8,0.1s1.5,0.1,2,0.1s1.1,0,2-0.1s1.8-0.1,2.4-0.1
		c0.1,0,0.2,0.1,0.2,0.3s-0.1,0.3-0.2,0.3c-1.2,0.1-1.8,0.4-1.8,0.7c0.1,0.4,0.3,0.8,0.6,1.1l4,4.7l4.2-4.7c0.2-0.2,0.4-0.5,0.4-0.9
		c0-0.3-0.2-0.5-0.5-0.6c-0.5-0.2-1.1-0.3-1.7-0.3c-0.1,0-0.2-0.1-0.2-0.3s0.1-0.3,0.2-0.3c0.5,0,1.2,0,2,0.1s1.4,0.1,1.9,0.1
		c0.5,0,1,0,1.5-0.1c0.5,0,1-0.1,1.5-0.1C210.1,76.7,210.1,76.8,210.1,77z"/>
</g>
</svg>
