<svg xmlns="http://www.w3.org/2000/svg" viewBox="0 0 374.15 115"><defs><style>.cls-1{fill:#fff;}.cls-2{fill:#8dc63f;}</style></defs><title>jmlogo</title><g id="Layer_1" data-name="Layer 1"><path class="cls-1" d="M191.66,63.66v1.27q-6.28,1-23.64,1.89l-.8-4.06h5.94q2.79,0,5.38-.19V59h-9.06v-3.4h9.06V52.71H169.2V37.28h9.34V34.59H167V31.05h11.56V27.89c-1.07.09-2.36.16-3.87.19l-4.86.19-1.32-3.73h1.18q14.29,0,20.34-1.46l2.17,3.16a42.66,42.66,0,0,1-9.53,1.6v3.21h10.76v1.23h5.81V23.69h4.06v8.59h8q-.19,25.1-.52,28.5a9.5,9.5,0,0,1-1.55,4.91c-.82,1-2.83,1.56-6,1.56-.72,0-1.35,0-1.89,0l-1.75-4.67a26.83,26.83,0,0,0,4.11.42,2.3,2.3,0,0,0,2.4-1.46q.61-1.46.85-8.68t.28-16.56h-3.87q-.61,18.92-7.93,31.29ZM178.54,43.51V40.39h-5.24v3.11Zm0,6.09V46.34h-5.24V49.6Zm13.12,14q6.75-9,7.41-27.46h-5.9V34.59H182.65v2.69h9.67V52.71h-9.67v2.88h9V59h-9v3.3q6.75-.61,9-1Zm-3.49-20.1V40.39h-5.52v3.11Zm0,6.09V46.34h-5.52V49.6Z"/><path class="cls-1" d="M226.4,49.34a50.5,50.5,0,0,1-5,4.12l-1.91-3q7.06-4.45,10.28-9.78h-9.71v-3h11.42a22.43,22.43,0,0,0,1.77-3.88l3.52.57a24.21,24.21,0,0,1-1.44,3.31h15.73v3H233.8a16.32,16.32,0,0,1-2,2.95H248.2v17q0,2.48-.9,3.38t-3.62.94h-4.12l-.67-3.21,4.19.17a2.69,2.69,0,0,0,1.34-.2q.3-.24.3-1.44V58H229.89v7.23H226.4Zm3.48-2.75v2.78h14.8V46.6Zm0,5.59v3h14.8v-3Z"/><path class="cls-1" d="M268.8,37.16a60.8,60.8,0,0,1-2.55,8.34q2.68,5.16,2.68,7.73,0,4.65-4.82,4.65a7,7,0,0,1-1.07-.07l-.87-3.15a14.66,14.66,0,0,0,1.94.13q1.81,0,1.81-1.64,0-2.41-2.81-7.53a60.92,60.92,0,0,0,2.51-7.73H261V65.25h-3.08V34.95H268.8Zm10.88,12.56a13.57,13.57,0,0,0,1.51,5,20,20,0,0,0,4.56-4.15l2.38,2.21a29.48,29.48,0,0,1-5.32,4.52,20.15,20.15,0,0,0,6,5.46l-1.91,2.55a21.31,21.31,0,0,1-10.21-15.54h-3.38V60.59c1-.31,2-.61,2.91-.87a25.3,25.3,0,0,0,2.78-1V61.9a68.3,68.3,0,0,1-11,3.18l-.6-3.25a19.74,19.74,0,0,0,2.91-.57V34.88H287V49.71Zm4.22-12H273.32v3.08H283.9Zm-10.58,9.11H283.9V43.62H273.32Z"/><path class="cls-1" d="M304.88,33.84,308,35.08a33.5,33.5,0,0,1-10.35,15L295,47.57A28.24,28.24,0,0,0,304.88,33.84Zm13.23,17a45.05,45.05,0,0,1,6.53,13.39l-3.48,1c-.67-2.26-1.07-3.38-1.2-3.38q-5.49.57-22.7,1.61l-.64-3.75q1.34,0,2.38,0c.83,0,1.59,0,2.28-.07q4.42-5.73,7.1-15.44l3.52.9a55.2,55.2,0,0,1-6.56,14.37,118.49,118.49,0,0,0,13.59-.9,56,56,0,0,0-3.78-6.5Zm-1-16.31q2.38,6.7,9.47,11.82L324,49a28.4,28.4,0,0,1-8.94-11.52h-5.22V34.54Z"/><path class="cls-1" d="M363,35.25V61.06q0,2.34-.77,3.11a4.52,4.52,0,0,1-3.15.81H353.6l-.77-3.32,5.49.17a1.07,1.07,0,0,0,1.21-1.21V38.33H333.28V35.21Zm-6.29,6.26v3.08H334.45V41.51Zm-21,6.26h18.65V58.92H335.76Zm15.37,2.95H339V56h12.09Z"/><path class="cls-1" d="M53.07,51.94q.4-.47.94-1.23l1.2-1.7q2.94-3.66,5.71-6.57t5.24-5.16q1.27-1.2,3.07-3.1t4.2-4.37q2.4-.94,5.28-2.14a3.1,3.1,0,0,1,2.67,1.17,5.58,5.58,0,0,1,.87,3.37,29.47,29.47,0,0,1-.3,4q-.3,2.17-.83,4.43c-.4,1.2-.73,2.36-1,3.47a1.05,1.05,0,0,0,.2.7.83.83,0,0,0,.67.24,20,20,0,0,0,3.87-3.34q2.86-2.86,7.53-8a48,48,0,0,1,7-6.57q3-2.17,4.8-2.17A3.09,3.09,0,0,1,107,26.43a8,8,0,0,1,.9,4.24,50.18,50.18,0,0,1-.6,7.83,31,31,0,0,1-2.07,7.23,5,5,0,0,0-.33,1.13,6,6,0,0,0-.07.87c0,.31.26.6.8.87a11,11,0,0,0,1.23-1.33c.47-.58,1-1.31,1.63-2.2l3.06-2.53q1.54-1.27,3.33-2.6a15.28,15.28,0,0,1,3.8-2.23,10.3,10.3,0,0,1,3.8-.77,1.27,1.27,0,0,1,.66.2,6.24,6.24,0,0,1,.67.47A30.46,30.46,0,0,1,126.36,40a9.11,9.11,0,0,1,1.4,1.9,47.83,47.83,0,0,0,4.63,8q2,2.64,3.56,2.63a1.47,1.47,0,0,0,.66-.17c.22-.11,14.57-3.62,14.68-3.88-.9,2.1-7.21,6.31-11.41,9.58a28.53,28.53,0,0,1-4.26,2.83,7.33,7.33,0,0,1-3.26,1q-4.6,0-9.5-6t-7.49-6q-3.47,0-11.53,10.23T93.78,70.4a23.36,23.36,0,0,1-2.67-.2,1.41,1.41,0,0,1-.8-.83,3.82,3.82,0,0,1-.27-1.5,11.83,11.83,0,0,1,.4-2.63q.4-1.63,1.07-3.83.87-2.8,1.4-4.47a13.61,13.61,0,0,0,.6-2.34q.2-.86.57-3.4t1-6.73a1.54,1.54,0,0,0-.4-1.13,1.28,1.28,0,0,0-.93-.4,2.21,2.21,0,0,0-1,.3,6.75,6.75,0,0,0-1.3,1,23.92,23.92,0,0,1-1.77,1.73q-1,.87-3.1,2.47l-4.77,5.44q-2.43,2.77-5,5.57-4,4.67-6.37,6.9t-3,2.24a7.69,7.69,0,0,1-3-.47,1.49,1.49,0,0,1-1-1.4q0-2.2,2.37-9.17T68,47.67A1,1,0,0,0,67,46.6a3.24,3.24,0,0,0-1.91.9,15.56,15.56,0,0,0-2.51,2.83q-.94,1.07-2.27,2.47T57,56.07a4.83,4.83,0,0,1-.53,1,11.07,11.07,0,0,1-.73,1,16.47,16.47,0,0,0-.93-2.47Q54.14,54.14,53.07,51.94Z"/><circle class="cls-2" cx="44.63" cy="9.43" r="6.01"/><path class="cls-1" d="M53.14,51.94a40.57,40.57,0,0,1-4,3.87q-2.43,2.07-5.7,4.47a7.47,7.47,0,0,0-.07-.87,16.82,16.82,0,0,1,.13-1.93A14.3,14.3,0,0,1,44,55c.31-1.2.54-2.17.7-2.9s.25-1.25.3-1.57q1.2-7.46,1.76-12.13a63.49,63.49,0,0,0,.57-6.53,24.5,24.5,0,0,1,.33-3.33A23.69,23.69,0,0,0,48,25.2a3.91,3.91,0,0,0-.9-2.77,3.71,3.71,0,0,0-2.83-1,5.36,5.36,0,0,0-3.16,1.2,16.1,16.1,0,0,0-3.3,3.47c-1.69,2-2.24,16.8-2.06,17.34l-1.13,3.6.4,3.47a7,7,0,0,1-.17,1.8q-.23,1.34-.56,3.6-.4,2.67-1,5.87c-.28,1.77-.54,3.32-.8,4.65C26.42,68.26,20,73.92,15.65,82c-6,11.24-5.94,23.26-.19,28.42a1.76,1.76,0,0,0,.55.64,1.88,1.88,0,0,0,.44.13c.18.12.34.27.53.38l.16-.28.11,0,2.57.23q1.53.07,3.83-2.8a52,52,0,0,0,5.23-8.67q2.4-4.87,4.07-8.54a38.39,38.39,0,0,0,2.33-6.33q.33-1.27.83-2.9t1.17-3.43q1.2-2.47,2.13-4.3c.63-1.22,1.16-2.21,1.6-3a20.15,20.15,0,0,0,3.7-2.73,6.69,6.69,0,0,0,1.77-2.53q8.67-7.94,9.33-8.27ZM29.32,84.19c-1.7,5.43-5.82,13.35-10.12,17.35s-1.79-3.09-1.79-3.09,2.15-10.68,5.07-15.94c4.34-7.84,8.84-9.73,8.84-9.73C32.63,74,31,78.76,29.32,84.19Z"/><path class="cls-1" d="M167.33,88.63,169,88.4a3.58,3.58,0,0,0,.61,2.21,1.9,1.9,0,0,0,1.49.6,2.24,2.24,0,0,0,1.21-.32A1.65,1.65,0,0,0,173,90a5.84,5.84,0,0,0,.19-1.76V78.53h1.87v9.61a7,7,0,0,1-.43,2.74,3,3,0,0,1-1.35,1.48,4.46,4.46,0,0,1-2.18.51,3.67,3.67,0,0,1-2.84-1.07A4.4,4.4,0,0,1,167.33,88.63Z"/><path class="cls-1" d="M187.38,78.53h1.87v8.15a9.66,9.66,0,0,1-.48,3.38,4.12,4.12,0,0,1-1.74,2,6.15,6.15,0,0,1-3.29.78,6.77,6.77,0,0,1-3.24-.68,3.9,3.9,0,0,1-1.8-2,9.41,9.41,0,0,1-.54-3.54V78.53H180v8.14a7.91,7.91,0,0,0,.34,2.71,2.59,2.59,0,0,0,1.17,1.34,4.07,4.07,0,0,0,2,.47,3.88,3.88,0,0,0,2.93-.93q.88-.93.88-3.59Z"/><path class="cls-1" d="M191.71,88.1l1.76-.15a3.89,3.89,0,0,0,.58,1.74,3.17,3.17,0,0,0,1.42,1.1,5.36,5.36,0,0,0,2.16.42,5.18,5.18,0,0,0,1.88-.32,2.61,2.61,0,0,0,1.22-.87,2,2,0,0,0,.4-1.21,1.83,1.83,0,0,0-.39-1.16,2.85,2.85,0,0,0-1.27-.83,24.81,24.81,0,0,0-2.51-.69,12.83,12.83,0,0,1-2.72-.88,3.83,3.83,0,0,1-1.51-1.31,3.22,3.22,0,0,1-.49-1.76,3.59,3.59,0,0,1,.61-2,3.76,3.76,0,0,1,1.77-1.41,6.7,6.7,0,0,1,2.58-.48,7.11,7.11,0,0,1,2.77.5,4,4,0,0,1,1.84,1.49,4.27,4.27,0,0,1,.69,2.22l-1.79.13a2.89,2.89,0,0,0-1-2,3.8,3.8,0,0,0-2.46-.68,3.94,3.94,0,0,0-2.46.62,1.85,1.85,0,0,0-.77,1.5,1.6,1.6,0,0,0,.55,1.25,7.41,7.41,0,0,0,2.81,1,18.8,18.8,0,0,1,3.12.9,4.3,4.3,0,0,1,1.82,1.44,3.51,3.51,0,0,1,.59,2,3.84,3.84,0,0,1-.64,2.12,4.25,4.25,0,0,1-1.85,1.55,6.48,6.48,0,0,1-2.72.55,8.11,8.11,0,0,1-3.21-.56,4.51,4.51,0,0,1-2-1.68A4.76,4.76,0,0,1,191.71,88.1Z"/><path class="cls-1" d="M209.07,92.63V80.2h-4.64V78.53H215.6V80.2h-4.66V92.63Z"/><path class="cls-1" d="M222.58,92.63V78.53h2.81l3.34,10q.46,1.39.67,2.09c.16-.51.41-1.27.75-2.26l3.38-9.81H236v14.1h-1.8V80.83l-4.1,11.8h-1.68l-4.08-12v12Z"/><path class="cls-1" d="M238.47,85.76a7.68,7.68,0,0,1,1.89-5.5,6.42,6.42,0,0,1,4.87-2,6.75,6.75,0,0,1,3.52.93,6.07,6.07,0,0,1,2.39,2.6A8.46,8.46,0,0,1,252,85.6a8.3,8.3,0,0,1-.86,3.84A5.89,5.89,0,0,1,248.63,92a7,7,0,0,1-3.42.87,6.67,6.67,0,0,1-3.56-1,6.2,6.2,0,0,1-2.38-2.62A8,8,0,0,1,238.47,85.76Zm1.92,0a5.65,5.65,0,0,0,1.37,4,4.78,4.78,0,0,0,6.91,0,6,6,0,0,0,1.36-4.2,7.22,7.22,0,0,0-.58-3,4.45,4.45,0,0,0-1.7-2,4.62,4.62,0,0,0-2.51-.71,4.78,4.78,0,0,0-3.41,1.36Q240.4,82.61,240.39,85.79Z"/><path class="cls-1" d="M258.39,92.63l-5.46-14.1h2l3.66,10.24q.44,1.23.74,2.31.33-1.15.76-2.31l3.81-10.24h1.9l-5.52,14.1Z"/><path class="cls-1" d="M267.53,92.63V78.53h10.19V80.2H269.4v4.32h7.8v1.65h-7.8V91h8.66v1.66Z"/><path class="cls-1" d="M286,92.63V78.53h1.87V91h6.94v1.66Z"/><path class="cls-1" d="M297.37,92.63V78.53h1.86v14.1Z"/><path class="cls-1" d="M302.47,92.63V78.53h2.81l3.34,10c.31.93.53,1.62.67,2.09q.24-.77.75-2.26l3.37-9.81h2.51v14.1h-1.8V80.83L310,92.63h-1.68l-4.07-12v12Z"/><path class="cls-1" d="M319.25,92.63V78.53h1.87v14.1Z"/><path class="cls-1" d="M328,92.63V80.2h-4.64V78.53h11.17V80.2h-4.66V92.63Z"/><path class="cls-1" d="M336.48,92.63V78.53h10.19V80.2h-8.33v4.32h7.8v1.65h-7.8V91H347v1.66Z"/><path class="cls-1" d="M349.57,92.63V78.53h4.86a11.65,11.65,0,0,1,2.51.2,4.8,4.8,0,0,1,2.07,1,5.7,5.7,0,0,1,1.67,2.41,9.41,9.41,0,0,1,.56,3.35,9.91,9.91,0,0,1-.37,2.85,6.92,6.92,0,0,1-1,2.05,5.1,5.1,0,0,1-1.28,1.28,5.21,5.21,0,0,1-1.68.71,9.68,9.68,0,0,1-2.26.24ZM351.44,91h3a7.35,7.35,0,0,0,2.19-.26A3.15,3.15,0,0,0,357.9,90a4.47,4.47,0,0,0,1-1.78,8.68,8.68,0,0,0,.37-2.72,6.59,6.59,0,0,0-.72-3.4,3.66,3.66,0,0,0-1.77-1.59,7.26,7.26,0,0,0-2.41-.29h-3Z"/></g></svg>