<?xml version="1.0" encoding="utf-8"?>
<!-- Generator: Adobe Illustrator 20.1.0, SVG Export Plug-In . SVG Version: 6.00 Build 0)  -->
<svg version="1.1" id="Layer_1" xmlns="http://www.w3.org/2000/svg" xmlns:xlink="http://www.w3.org/1999/xlink" x="0px" y="0px"
	 viewBox="0 0 162 115" style="enable-background:new 0 0 162 115;" xml:space="preserve">
<style type="text/css">
	.st0{fill:#FFFFFF;}
	.st1{fill:#8DC63F;}
</style>
<g id="Layer_1_1_">
	<path class="st0" d="M53.1,51.9c0.3-0.3,0.6-0.7,0.9-1.2l1.2-1.7c2-2.4,3.9-4.6,5.7-6.6c1.8-1.9,3.6-3.7,5.2-5.2
		c0.8-0.8,1.9-1.8,3.1-3.1s2.6-2.7,4.2-4.4c1.6-0.6,3.4-1.3,5.3-2.1c1-0.1,2,0.4,2.7,1.2c0.6,1,0.9,2.2,0.9,3.4c0,1.3-0.1,2.7-0.3,4
		c-0.2,1.4-0.5,2.9-0.8,4.4c-0.4,1.2-0.7,2.4-1,3.5c0,0.2,0.1,0.5,0.2,0.7c0.2,0.2,0.4,0.3,0.7,0.2c1.4-0.9,2.7-2.1,3.9-3.3
		c1.9-1.9,4.4-4.6,7.5-8c2.1-2.4,4.5-4.6,7-6.6c2-1.4,3.6-2.2,4.8-2.2c1.1-0.1,2.2,0.5,2.8,1.5c0.7,1.3,1,2.8,0.9,4.2
		c0,2.6-0.2,5.2-0.6,7.8c-0.4,2.5-1.1,4.9-2.1,7.2c-0.2,0.4-0.3,0.7-0.3,1.1c0,0.3-0.1,0.6-0.1,0.9c0,0.3,0.3,0.6,0.8,0.9
		c0.4-0.4,0.9-0.9,1.2-1.3c0.5-0.6,1-1.3,1.6-2.2l3.1-2.5c1-0.8,2.1-1.7,3.3-2.6c1.2-0.9,2.4-1.7,3.8-2.2c1.2-0.5,2.5-0.8,3.8-0.8
		c0.2,0,0.5,0.1,0.7,0.2c0.2,0.1,0.5,0.3,0.7,0.5c0.9,0.7,1.7,1.5,2.5,2.4c0.5,0.6,1,1.2,1.4,1.9c1.3,2.8,2.8,5.5,4.6,8
		c1.3,1.8,2.5,2.6,3.6,2.6c0.2,0,0.5-0.1,0.7-0.2c0.2-0.1,14.6-3.6,14.7-3.9c-0.9,2.1-7.2,6.3-11.4,9.6c-1.3,1.1-2.8,2-4.3,2.8
		c-1,0.6-2.1,0.9-3.3,1c-3.1,0-6.2-2-9.5-6c-3.3-4-5.8-6-7.5-6c-2.3,0-6.2,3.4-11.5,10.2c-5.4,6.8-8.7,10.2-10.1,10.3
		c-0.9,0-1.8-0.1-2.7-0.2c-0.4-0.2-0.7-0.5-0.8-0.8c-0.2-0.5-0.3-1-0.3-1.5c0-0.9,0.2-1.8,0.4-2.6c0.3-1.1,0.6-2.4,1.1-3.8
		c0.6-1.9,1-3.4,1.4-4.5c0.3-0.8,0.5-1.5,0.6-2.3c0.1-0.6,0.3-1.7,0.6-3.4c0.2-1.7,0.6-3.9,1-6.7c0-0.4-0.1-0.8-0.4-1.1
		c-0.2-0.3-0.6-0.4-0.9-0.4c-0.4,0-0.7,0.1-1,0.3c-0.5,0.3-0.9,0.6-1.3,1c-0.6,0.6-1.2,1.2-1.8,1.7c-0.7,0.6-1.7,1.4-3.1,2.5
		l-4.8,5.4c-1.6,1.8-3.3,3.7-5,5.6c-2.7,3.1-4.8,5.4-6.4,6.9c-1.6,1.5-2.6,2.2-3,2.2c-1,0-2-0.1-3-0.5c-0.6-0.2-1-0.8-1-1.4
		c0-1.5,0.8-4.5,2.4-9.2c1.6-4.6,2.3-7.9,2.2-9.9c0-0.6-0.4-1-0.9-1.1c0,0,0,0-0.1,0c-0.7,0.1-1.4,0.4-1.9,0.9
		c-0.9,0.8-1.8,1.8-2.5,2.8c-0.6,0.7-1.4,1.5-2.3,2.5s-2,2-3.3,3.3c-0.1,0.4-0.3,0.7-0.5,1c-0.2,0.3-0.5,0.7-0.7,1
		c-0.2-0.8-0.6-1.7-0.9-2.5C54.4,54.6,53.8,53.4,53.1,51.9z"/>
	<circle class="st1" cx="44.6" cy="9.4" r="6"/>
	<path class="st0" d="M53.1,51.9c-1.2,1.4-2.6,2.7-4,3.9c-1.6,1.4-3.5,2.9-5.7,4.5c0-0.3,0-0.6-0.1-0.9c0-0.6,0-1.3,0.1-1.9
		c0.1-0.8,0.3-1.7,0.5-2.5c0.3-1.2,0.5-2.2,0.7-2.9s0.3-1.3,0.3-1.6c0.8-5,1.4-9,1.8-12.1c0.3-2.2,0.5-4.3,0.6-6.5
		c0-1.1,0.1-2.2,0.3-3.3c0.2-1.1,0.3-2.2,0.3-3.3c0.1-1-0.3-2-0.9-2.8c-0.8-0.7-1.8-1.1-2.8-1c-1.2,0-2.3,0.5-3.2,1.2
		c-1.3,1-2.4,2.2-3.3,3.5c-1.7,2-2.2,16.8-2.1,17.3L34.6,47l0.4,3.5c0,0.6,0,1.2-0.2,1.8c-0.2,0.9-0.3,2.1-0.6,3.6
		c-0.3,1.8-0.6,3.7-1,5.9c-0.3,1.8-0.5,3.3-0.8,4.7C26.4,68.3,20,73.9,15.6,82c-6,11.2-5.9,23.3-0.2,28.4c0.1,0.3,0.3,0.5,0.6,0.6
		c0.1,0.1,0.3,0.1,0.4,0.1c0.2,0.1,0.3,0.3,0.5,0.4l0.2-0.3h0.1l2.6,0.2c1,0,2.3-0.9,3.8-2.8c2-2.7,3.8-5.6,5.2-8.7
		c1.6-3.2,3-6.1,4.1-8.5c1-2,1.7-4.2,2.3-6.3c0.2-0.8,0.5-1.8,0.8-2.9s0.7-2.2,1.2-3.4c0.8-1.6,1.5-3.1,2.1-4.3
		c0.6-1.2,1.2-2.2,1.6-3c1.3-0.8,2.6-1.7,3.7-2.7c0.8-0.7,1.4-1.6,1.8-2.5c5.8-5.3,8.9-8,9.3-8.3L53.1,51.9z M29.3,84.2
		c-1.7,5.4-5.8,13.3-10.1,17.3s-1.8-3.1-1.8-3.1s2.1-10.7,5.1-15.9c4.3-7.8,8.8-9.7,8.8-9.7C32.6,74,31,78.8,29.3,84.2z"/>
</g>
</svg>
