<?xml version="1.0" encoding="utf-8"?>
<!-- Generator: Adobe Illustrator 20.1.0, SVG Export Plug-In . SVG Version: 6.00 Build 0)  -->
<svg version="1.1" id="Layer_1" xmlns="http://www.w3.org/2000/svg" xmlns:xlink="http://www.w3.org/1999/xlink" x="0px" y="0px"
	 viewBox="0 0 162 115" style="enable-background:new 0 0 162 115;" xml:space="preserve">
<style type="text/css">
	.st0{fill:#8DC220;}
	.st1{fill:#FFFFFF;}
</style>
<g>
	<circle class="st0" cx="45" cy="9.9" r="6"/>
	<path class="st1" d="M137.3,51.8c-0.2,0.1-1,0.2-1.3,0.2c-1,0-2.2-0.9-3.6-2.6c-1.4-1.8-2.9-4.4-4.6-8c-0.3-0.5-0.8-1.1-1.4-1.9
		c-1.9-2.4-5-3.8-7.7-2.3c-1.2,0.7-2.6,1.3-3.8,2.2c-1.2,0.9-2.3,1.8-3.3,2.6c-1,0.8-4.2,4.2-4.7,4.7c-1.3,1.2-2,0.8-2,0.5
		c0-0.3,0.3-1.5,0.4-2c0.9-3.4,2.7-12.4,2.7-15.1c0-1.9-0.3-3.3-0.9-4.2c-0.6-1-1.5-1.4-2.8-1.4c-1.2,0-2.8,0.7-4.8,2.2
		c-2,1.4-4.3,3.6-7,6.6c-3.1,3.4-5.6,6.1-7.6,8c-1.9,1.9-3.2,3-3.9,3.3c-0.3,0-0.5-0.1-0.7-0.2c-0.1-0.2-0.2-0.4-0.2-0.7
		c0.3-1.1,0.6-2.3,1-3.5c0.4-1.5,0.6-3,0.8-4.4c0.2-1.4,0.3-2.8,0.3-4c0-1.5-0.3-2.6-0.9-3.4c-0.6-0.8-1.5-1.7-2.7-1.7
		c-2.1-0.1-3,0.9-5.2,2.7c-1.6,1.6-3,3.1-4.2,4.4c-1.2,1.3-2.2,2.3-3.1,3.1c-1.7,1.5-13.9,14.8-16,17.1s-7.4,9-7.5,8.6
		c0-0.5,2.1-12.5,2.6-14.7c0.7-3.7,2.7-17.1,3-18.6c0.2-1.5,0.3-2.6,0.3-3.3c0-1.2-0.3-2.1-0.9-2.8c-0.6-0.6-1.6-1-2.8-1
		c-1,0-2.1,0.4-3.2,1.2c-1.1,0.8-2.2,2-3.3,3.5c-1.7,2-2.7,22.3-3.1,25.2c-0.8,6.2-2.3,18.8-2.3,18.8c-2.9,2.8-9.2,11-11.7,14.6
		c-8.5,12.5-8.6,19.8-8.7,21.8c-0.3,6.1,4.8,9,14-0.5c7-8.2,9.5-16.8,10.7-19.9c1.9-5.3,4.8-17.8,4.8-17.8l4.9-5.9
		c9.7-9.8,17.3-15.4,18.1-16c0.7-0.6,1.4-0.9,1.9-0.9c0.3,0,0.6,0.1,0.8,0.3c0.2,0.2,0.3,0.5,0.3,0.8c0,1.9-0.8,5.2-2.4,9.9
		c-1.6,4.7-2.4,7.7-2.4,9.2c0,0.6,0.3,1.1,1,1.4c0.7,0.3,3.3,0.9,6.1-1.8c1.5-1.5,3.7-3.8,6.4-6.9c1.7-1.9,3.4-3.7,5-5.6
		c1.6-1.8,7.2-7.3,7.9-7.9c0.6-0.6,1.2-1.2,1.8-1.7c0.5-0.4,0.9-0.8,1.3-1c0.4-0.2,0.7-0.3,1-0.3c0.4,0,0.7,0.1,0.9,0.4
		c0.3,0.3,1,2.3,0.4,4.7c-0.8,3.5-3,11.6-3.5,13.5c-0.4,1.5-0.8,2.8-1.1,3.8c-0.3,1.1-0.4,2-0.4,2.6c0,0.6,0.1,1.1,0.3,1.5
		c0.5,1.4,2.6,1.4,3.5,1c1.2-0.5,4.7-3.4,10.1-10.3c5.4-6.8,9.2-10.3,11.6-10.3c1.7,0,4.2,2,7.5,6c3.3,4,6.4,6,9.5,6
		c0.9,0,2-0.3,3.3-1c1.2-0.6,2.7-1.6,4.3-2.8c4.2-3.3,10.5-7.5,11.4-9.6C151.3,48.1,137.5,51.7,137.3,51.8z M27.4,86.2
		c-3.2,7.3-5.9,12.3-9.9,16.4c-4.7,4.9-2.1-4,5.3-14.5c3.9-5.5,9-12.4,9-12.4S28.9,82.7,27.4,86.2z"/>
</g>
</svg>
