<?xml version="1.0" encoding="utf-8"?>
<!-- Generator: Adobe Illustrator 20.1.0, SVG Export Plug-In . SVG Version: 6.00 Build 0)  -->
<svg version="1.1" id="Layer_1" xmlns="http://www.w3.org/2000/svg" xmlns:xlink="http://www.w3.org/1999/xlink" x="0px" y="0px"
	 viewBox="0 0 374.1 115" style="enable-background:new 0 0 374.1 115;" xml:space="preserve">
<style type="text/css">
	.st0{fill:#FFFFFF;}
	.st1{fill:#8DC220;}
</style>
<title>jmlogo</title>
<g id="Layer_1_1_">
	<path class="st0" d="M187.7,63.7V65c-4.2,0.7-12.1,1.3-23.6,1.9l-0.8-4.1h5.9c1.9,0,3.7-0.1,5.4-0.2V59h-9.1v-3.4h9.1v-2.9h-9.3
		V37.3h9.3v-2.7H163V31h11.6v-3.2c-1.1,0.1-2.4,0.2-3.9,0.2l-4.9,0.2l-1.3-3.7h1.2c9.5,0,16.3-0.5,20.3-1.5l2.2,3.2
		c-3.1,0.9-6.3,1.4-9.5,1.6V31h10.8v1.2h5.8v-8.6h4.1v8.6h8c-0.1,16.7-0.3,26.2-0.5,28.5c-0.1,1.7-0.6,3.4-1.6,4.9
		c-0.8,1-2.8,1.6-6,1.6c-0.7,0-1.4,0-1.9,0l-1.8-4.7c1.4,0.2,2.7,0.4,4.1,0.4c1,0.1,2-0.5,2.4-1.5s0.7-3.9,0.9-8.7
		s0.3-10.3,0.3-16.6h-3.9c-0.4,12.6-3,23-7.9,31.3L187.7,63.7z M174.5,43.5v-3.1h-5.2v3.1H174.5z M174.5,49.6v-3.3h-5.2v3.3H174.5z
		 M187.7,63.6c4.5-6,7-15.2,7.4-27.5h-5.9v-1.5h-10.5v2.7h9.7v15.4h-9.7v2.9h9V59h-9v3.3c4.5-0.4,7.5-0.7,9-1V63.6z M184.2,43.5
		v-3.1h-5.5v3.1H184.2z M184.2,49.6v-3.3h-5.5v3.3H184.2z"/>
	<path class="st0" d="M222.4,49.3c-1.6,1.5-3.2,2.9-5,4.1l-1.9-3c4.7-3,8.1-6.2,10.3-9.8h-9.7v-3h11.4c0.7-1.2,1.3-2.5,1.8-3.9
		l3.5,0.6c-0.4,1.1-0.9,2.2-1.4,3.3h15.7v3h-17.3c-0.6,1.1-1.2,2-2,3h16.4v17c0,1.7-0.3,2.8-0.9,3.4c-0.6,0.6-1.8,0.9-3.6,0.9h-4.1
		l-0.7-3.2l4.2,0.2c0.5,0,0.9,0,1.3-0.2c0.2-0.2,0.3-0.6,0.3-1.4V58h-14.8v7.2h-3.5V49.3z M225.9,46.6v2.8h14.8v-2.8H225.9z
		 M225.9,52.2v3h14.8v-3H225.9z"/>
	<path class="st0" d="M264.8,37.2c-0.6,2.8-1.5,5.6-2.5,8.3c1.8,3.4,2.7,6,2.7,7.7c0,3.1-1.6,4.7-4.8,4.7c-0.4,0-0.7,0-1.1-0.1
		l-0.9-3.2c0.6,0.1,1.3,0.1,1.9,0.1c1.2,0,1.8-0.5,1.8-1.6c0-1.6-0.9-4.1-2.8-7.5c1-2.5,1.8-5.1,2.5-7.7H257v27.4h-3.1V34.9h10.9
		V37.2z M275.7,49.7c0.2,1.7,0.7,3.4,1.5,5c1.7-1.1,3.3-2.5,4.6-4.2l2.4,2.2c-1.6,1.7-3.4,3.2-5.3,4.5c1.6,2.2,3.7,4.1,6,5.5
		l-1.9,2.5c-5.6-3.3-9.4-9.1-10.2-15.5h-3.4v10.8c1-0.3,2-0.6,2.9-0.9c0.9-0.3,1.9-0.6,2.8-1v3.2c-3.6,1.4-7.3,2.4-11,3.2l-0.6-3.3
		c1-0.1,2-0.3,2.9-0.6V34.9H283v14.8H275.7z M279.9,37.7h-10.6v3.1h10.6V37.7z M269.3,46.8h10.6v-3.2h-10.6V46.8z"/>
	<path class="st0" d="M300.9,33.8L304,35c-2,5.9-5.6,11.1-10.4,15l-2.6-2.5C295.6,44.1,299.1,39.3,300.9,33.8z M314.1,50.8
		c2.9,4.1,5.1,8.6,6.5,13.4l-3.5,1c-0.7-2.3-1.1-3.4-1.2-3.4c-3.7,0.4-11.2,0.9-22.7,1.6l-0.6-3.8c0.9,0,1.7,0,2.4,0
		c0.8,0,1.6,0,2.3-0.1c2.9-3.8,5.3-9,7.1-15.4l3.5,0.9c-1.5,5.1-3.7,9.9-6.6,14.4c4.5,0,9.1-0.3,13.6-0.9c-1.1-2.2-2.4-4.4-3.8-6.5
		L314.1,50.8z M313.1,34.5c1.6,4.5,4.7,8.4,9.5,11.8L320,49c-3.9-3-7-7-8.9-11.5h-5.2v-2.9L313.1,34.5z"/>
	<path class="st0" d="M359,35.2V61c0,1.6-0.3,2.6-0.8,3.1c-0.9,0.7-2,0.9-3.1,0.8h-5.5l-0.8-3.3l5.5,0.2c0.6,0.1,1.1-0.3,1.2-0.9
		c0-0.1,0-0.2,0-0.3V38.3h-26.3v-3.1H359z M352.7,41.5v3.1h-22.3v-3.1H352.7z M331.7,47.8h18.6v11.1h-18.6V47.8z M347.1,50.7H335V56
		h12.1V50.7z"/>
	<path class="st0" d="M163.3,88.6l1.7-0.2c0,0.8,0.2,1.6,0.6,2.2c0.4,0.4,0.9,0.6,1.5,0.6c0.4,0,0.8-0.1,1.2-0.3
		c0.3-0.2,0.6-0.5,0.7-0.9c0.2-0.6,0.2-1.2,0.2-1.8v-9.7h1.9v9.6c0,0.9-0.1,1.9-0.4,2.7c-0.3,0.6-0.7,1.2-1.4,1.5
		c-0.7,0.4-1.4,0.5-2.2,0.5c-1.1,0.1-2.1-0.3-2.8-1.1C163.6,90.9,163.2,89.8,163.3,88.6z"/>
	<path class="st0" d="M183.4,78.5h1.9v8.2c0,1.1-0.1,2.3-0.5,3.4c-0.3,0.8-1,1.5-1.7,2c-1,0.6-2.1,0.8-3.3,0.8
		c-1.1,0-2.2-0.2-3.2-0.7c-0.8-0.4-1.5-1.1-1.8-2c-0.4-1.1-0.6-2.3-0.5-3.5v-8.1h1.8v8.1c0,0.9,0.1,1.8,0.3,2.7
		c0.2,0.6,0.6,1,1.2,1.3c0.6,0.3,1.3,0.5,2,0.5c1.1,0.1,2.1-0.2,2.9-0.9c0.6-0.6,0.9-1.8,0.9-3.6L183.4,78.5z"/>
	<path class="st0" d="M187.7,88.1l1.8-0.2c0.1,0.6,0.3,1.2,0.6,1.7c0.4,0.5,0.9,0.9,1.4,1.1c0.7,0.3,1.4,0.4,2.2,0.4
		c0.6,0,1.3-0.1,1.9-0.3c0.5-0.2,0.9-0.5,1.2-0.9c0.3-0.3,0.4-0.8,0.4-1.2c0-0.4-0.1-0.8-0.4-1.2c-0.3-0.4-0.8-0.7-1.3-0.8
		c-0.8-0.3-1.7-0.5-2.5-0.7c-0.9-0.2-1.8-0.5-2.7-0.9c-0.6-0.3-1.1-0.7-1.5-1.3c-0.3-0.5-0.5-1.1-0.5-1.8c0-0.7,0.2-1.4,0.6-2
		c0.4-0.6,1-1.1,1.8-1.4s1.7-0.5,2.6-0.5c0.9,0,1.9,0.2,2.8,0.5c0.7,0.3,1.4,0.8,1.8,1.5c0.4,0.7,0.7,1.4,0.7,2.2l-1.8,0.1
		c-0.1-0.8-0.4-1.5-1-2c-0.7-0.5-1.6-0.7-2.5-0.7c-0.9-0.1-1.7,0.1-2.5,0.6c-0.5,0.3-0.8,0.9-0.8,1.5c0,0.5,0.2,0.9,0.6,1.3
		c0.9,0.5,1.8,0.9,2.8,1c1.1,0.2,2.1,0.5,3.1,0.9c0.7,0.3,1.4,0.8,1.8,1.4c0.4,0.6,0.6,1.3,0.6,2c0,0.8-0.2,1.5-0.6,2.1
		c-0.5,0.7-1.1,1.2-1.9,1.6c-0.9,0.4-1.8,0.6-2.7,0.6c-1.1,0-2.2-0.2-3.2-0.6c-0.8-0.4-1.5-0.9-2-1.7C188,89.9,187.7,89,187.7,88.1z
		"/>
	<path class="st0" d="M205.1,92.6V80.2h-4.6v-1.7h11.2v1.7H207v12.4H205.1z"/>
	<path class="st0" d="M218.6,92.6V78.5h2.8l3.3,10c0.3,0.9,0.5,1.6,0.7,2.1c0.2-0.5,0.4-1.3,0.8-2.3l3.4-9.8h2.5v14.1h-1.8V80.8
		l-4.1,11.8h-1.7l-4.1-12v12L218.6,92.6z"/>
	<path class="st0" d="M234.5,85.8c-0.1-2,0.6-4,1.9-5.5c1.3-1.3,3-2.1,4.9-2c1.2,0,2.5,0.3,3.5,0.9s1.9,1.5,2.4,2.6
		c0.6,1.2,0.9,2.5,0.9,3.8s-0.3,2.6-0.9,3.8c-0.6,1.1-1.4,2-2.5,2.6c-1,0.6-2.2,0.9-3.4,0.9c-1.3,0-2.5-0.3-3.6-1
		c-1-0.6-1.9-1.5-2.4-2.6C234.7,88.2,234.5,87,234.5,85.8z M236.4,85.8c-0.1,1.5,0.4,2.9,1.4,4c1.8,1.9,4.9,2,6.8,0.2
		c0.1,0,0.1-0.1,0.2-0.2c1-1.2,1.5-2.7,1.4-4.2c0-1-0.2-2.1-0.6-3c-0.4-0.8-0.9-1.5-1.7-2s-1.6-0.7-2.5-0.7c-1.3,0-2.5,0.5-3.4,1.4
		C236.9,82.1,236.4,83.7,236.4,85.8L236.4,85.8z"/>
	<path class="st0" d="M254.4,92.6l-5.5-14.1h2l3.7,10.2c0.3,0.8,0.5,1.6,0.7,2.3c0.2-0.8,0.5-1.5,0.8-2.3l3.8-10.2h1.9l-5.5,14.1
		H254.4z"/>
	<path class="st0" d="M263.5,92.6V78.5h10.2v1.7h-8.3v4.3h7.8v1.7h-7.8V91h8.7v1.7L263.5,92.6z"/>
	<path class="st0" d="M282,92.6V78.5h1.9V91h6.9v1.7L282,92.6z"/>
	<path class="st0" d="M293.4,92.6V78.5h1.9v14.1H293.4z"/>
	<path class="st0" d="M298.5,92.6V78.5h2.8l3.3,10c0.3,0.9,0.5,1.6,0.7,2.1c0.2-0.5,0.4-1.3,0.8-2.3l3.4-9.8h2.5v14.1h-1.8V80.8
		L306,92.6h-1.7l-4.1-12v12H298.5z"/>
	<path class="st0" d="M315.3,92.6V78.5h1.9v14.1H315.3z"/>
	<path class="st0" d="M324,92.6V80.2h-4.6v-1.7h11.2v1.7h-4.7v12.4H324z"/>
	<path class="st0" d="M332.5,92.6V78.5h10.2v1.7h-8.3v4.3h7.8v1.7h-7.8V91h8.7v1.7L332.5,92.6z"/>
	<path class="st0" d="M345.6,92.6V78.5h4.9c0.8,0,1.7,0,2.5,0.2s1.5,0.5,2.1,1c0.8,0.6,1.3,1.5,1.7,2.4c0.4,1.1,0.6,2.2,0.6,3.3
		c0,1-0.1,1.9-0.4,2.8c-0.2,0.7-0.6,1.4-1,2.1c-0.3,0.5-0.8,0.9-1.3,1.3c-0.5,0.3-1.1,0.6-1.7,0.7c-0.7,0.2-1.5,0.2-2.3,0.2
		L345.6,92.6z M347.4,91h3c0.7,0,1.5-0.1,2.2-0.3c0.5-0.1,0.9-0.4,1.3-0.7c0.5-0.5,0.8-1.1,1-1.8c0.3-0.9,0.4-1.8,0.4-2.7
		c0.1-1.2-0.2-2.4-0.7-3.4c-0.4-0.7-1-1.3-1.8-1.6c-0.8-0.2-1.6-0.3-2.4-0.3h-3V91z"/>
	<g>
		<circle class="st1" cx="48.3" cy="9.6" r="5.9"/>
		<path class="st0" d="M139.3,51c-0.2,0.1-1,0.2-1.2,0.2c-1,0-2.2-0.9-3.5-2.6c-1.3-1.7-2.9-4.4-4.6-7.9c-0.3-0.5-0.8-1.1-1.4-1.9
			c-1.9-2.4-5-3.8-7.6-2.3c-1.2,0.7-2.5,1.2-3.8,2.2c-1.2,0.9-2.3,1.7-3.3,2.6c-1,0.8-4.1,4.2-4.6,4.7c-1.3,1.2-2,0.8-2,0.5
			s0.3-1.5,0.4-2c0.9-3.4,2.6-12.2,2.6-14.9c0-1.8-0.3-3.2-0.9-4.2c-0.6-0.9-1.5-1.4-2.8-1.4c-1.2,0-2.8,0.7-4.7,2.1
			c-2,1.4-4.3,3.6-6.9,6.5c-3.1,3.4-5.6,6-7.5,7.9s-3.2,3-3.8,3.3c-0.3,0-0.5-0.1-0.7-0.2c-0.1-0.2-0.2-0.4-0.2-0.7
			c0.3-1.1,0.6-2.2,1-3.4c0.4-1.5,0.6-3,0.8-4.4c0.2-1.4,0.3-2.8,0.3-4c0-1.5-0.3-2.6-0.9-3.3c-0.6-0.8-1.5-1.7-2.7-1.7
			c-2.1-0.1-3,0.9-5.2,2.6c-1.6,1.6-3,3.1-4.2,4.3c-1.2,1.3-2.2,2.3-3,3.1C67.3,37.6,55.2,50.7,53.1,53c-2.1,2.2-7.3,8.9-7.4,8.5
			c0-0.5,2.1-12.3,2.5-14.5c0.7-3.6,2.7-16.9,2.9-18.3c0.2-1.5,0.3-2.6,0.3-3.3c0-1.2-0.3-2.1-0.9-2.7c-0.6-0.6-1.5-1-2.8-1
			c-1,0-2.1,0.4-3.1,1.2c-1.1,0.8-2.2,1.9-3.3,3.4c-1.7,2-2.7,22-3,24.9c-0.8,6.1-2.2,18.5-2.2,18.5c-2.9,2.8-9.1,10.8-11.5,14.4
			c-8.4,12.4-8.5,19.6-8.6,21.5c-0.3,6,4.8,8.8,13.8-0.5c6.9-8.1,9.4-16.6,10.6-19.7c1.9-5.2,4.7-17.5,4.7-17.5l4.8-5.8
			C59.4,52.5,67,47,67.7,46.4s1.4-0.9,1.9-0.9c0.3,0,0.6,0.1,0.8,0.3c0.2,0.2,0.3,0.5,0.3,0.8c0,1.9-0.8,5.1-2.3,9.7
			c-1.6,4.6-2.3,7.6-2.3,9.1c0,0.6,0.3,1.1,1,1.4c0.7,0.3,3.3,0.9,6-1.7c1.5-1.5,3.7-3.7,6.3-6.8c1.7-1.8,3.3-3.7,4.9-5.5
			s7.1-7.2,7.8-7.8c0.6-0.6,1.2-1.1,1.8-1.7c0.5-0.4,0.9-0.8,1.3-1s0.7-0.3,1-0.3s0.7,0.1,0.9,0.4c0.3,0.3,1,2.2,0.4,4.6
			c-0.8,3.5-2.9,11.4-3.5,13.3c-0.4,1.5-0.8,2.7-1.1,3.8c-0.3,1.1-0.4,1.9-0.4,2.6c0,0.6,0.1,1.1,0.3,1.5c0.5,1.4,2.5,1.4,3.4,1
			c1.2-0.5,4.6-3.4,10-10.1c5.3-6.8,9.1-10.1,11.4-10.1c1.7,0,4.2,2,7.4,5.9c3.2,3.9,6.4,5.9,9.4,5.9c0.9,0,2-0.3,3.2-1
			c1.2-0.6,2.6-1.6,4.2-2.8c4.1-3.2,10.4-7.4,11.3-9.5C153.2,47.4,139.6,50.8,139.3,51z M30.9,84.9c-3.2,7.2-5.9,12.2-9.8,16.2
			c-4.7,4.9-2.1-4,5.2-14.3c3.8-5.4,8.8-12.2,8.8-12.2S32.5,81.4,30.9,84.9z"/>
	</g>
</g>
</svg>
